<?xml version="1.0" encoding="utf-8"?>
<!-- Generator: Adobe Illustrator 27.5.0, SVG Export Plug-In . SVG Version: 6.00 Build 0)  -->
<svg version="1.1" id="Layer_1" xmlns="http://www.w3.org/2000/svg" xmlns:xlink="http://www.w3.org/1999/xlink" x="0px" y="0px"
	 viewBox="0 0 288.001 288" style="enable-background:new 0 0 288.001 288;" xml:space="preserve">
<g>
	<g>
		<defs>
			<rect id="SVGID_1_" x="0" width="288.001" height="288"/>
		</defs>
		<use xlink:href="#SVGID_1_"  style="overflow:visible;fill-rule:evenodd;clip-rule:evenodd;fill:#FFFFFF;"/>
		<clipPath id="SVGID_00000057109437870294048810000001552927902666106760_">
			<use xlink:href="#SVGID_1_"  style="overflow:visible;"/>
		</clipPath>
		<g style="clip-path:url(#SVGID_00000057109437870294048810000001552927902666106760_);">
			<path d="M-9.994-13.133c0.706,0,1.278-0.572,1.278-1.278c0-0.706-0.572-1.278-1.278-1.278c-0.705,0-1.277,0.572-1.277,1.278
				C-11.271-13.705-10.699-13.133-9.994-13.133z"/>
			<path d="M4.406-13.133c0.705,0,1.277-0.572,1.277-1.278c0-0.706-0.572-1.278-1.277-1.278c-0.706,0-1.278,0.572-1.278,1.278
				C3.128-13.705,3.7-13.133,4.406-13.133z"/>
			<path d="M18.806-13.133c0.706,0,1.278-0.572,1.278-1.278c0-0.706-0.572-1.278-1.278-1.278c-0.705,0-1.277,0.572-1.277,1.278
				C17.528-13.705,18.101-13.133,18.806-13.133z"/>
			<circle cx="33.206" cy="-14.411" r="1.278"/>
			<path d="M47.606-13.133c0.705,0,1.277-0.572,1.277-1.278c0-0.706-0.572-1.278-1.277-1.278c-0.706,0-1.278,0.572-1.278,1.278
				C46.328-13.705,46.9-13.133,47.606-13.133z"/>
			<path d="M62.006-13.133c0.706,0,1.278-0.572,1.278-1.278c0-0.706-0.572-1.278-1.278-1.278c-0.705,0-1.277,0.572-1.277,1.278
				C60.729-13.705,61.301-13.133,62.006-13.133z"/>
			<path d="M76.406-13.133c0.705,0,1.277-0.572,1.277-1.278c0-0.706-0.572-1.278-1.277-1.278c-0.706,0-1.278,0.572-1.278,1.278
				C75.128-13.705,75.7-13.133,76.406-13.133z"/>
			<path d="M90.806-13.133c0.706,0,1.278-0.572,1.278-1.278c0-0.706-0.572-1.278-1.278-1.278c-0.705,0-1.277,0.572-1.277,1.278
				C89.528-13.705,90.101-13.133,90.806-13.133z"/>
			<circle cx="105.206" cy="-14.411" r="1.278"/>
			<path d="M119.606-13.133c0.705,0,1.277-0.572,1.277-1.278c0-0.706-0.572-1.278-1.277-1.278c-0.706,0-1.278,0.572-1.278,1.278
				C118.328-13.705,118.9-13.133,119.606-13.133z"/>
			<path d="M134.006-13.133c0.706,0,1.278-0.572,1.278-1.278c0-0.706-0.572-1.278-1.278-1.278c-0.705,0-1.277,0.572-1.277,1.278
				C132.729-13.705,133.301-13.133,134.006-13.133z"/>
			<path d="M148.406-13.133c0.705,0,1.277-0.572,1.277-1.278c0-0.706-0.572-1.278-1.277-1.278c-0.706,0-1.278,0.572-1.278,1.278
				C147.128-13.705,147.7-13.133,148.406-13.133z"/>
			<path d="M162.806-13.133c0.706,0,1.278-0.572,1.278-1.278c0-0.706-0.572-1.278-1.278-1.278c-0.705,0-1.277,0.572-1.277,1.278
				C161.528-13.705,162.101-13.133,162.806-13.133z"/>
			<circle cx="177.206" cy="-14.411" r="1.278"/>
			<path d="M191.607-13.133c0.705,0,1.277-0.572,1.277-1.278c0-0.706-0.572-1.278-1.277-1.278c-0.706,0-1.278,0.572-1.278,1.278
				C190.328-13.705,190.9-13.133,191.607-13.133z"/>
			<path d="M206.006-13.133c0.706,0,1.278-0.572,1.278-1.278c0-0.706-0.572-1.278-1.278-1.278c-0.705,0-1.277,0.572-1.277,1.278
				C204.729-13.705,205.301-13.133,206.006-13.133z"/>
			<path d="M220.406-13.133c0.705,0,1.277-0.572,1.277-1.278c0-0.706-0.572-1.278-1.277-1.278c-0.706,0-1.278,0.572-1.278,1.278
				C219.128-13.705,219.7-13.133,220.406-13.133z"/>
			<path d="M234.806-13.133c0.706,0,1.278-0.572,1.278-1.278c0-0.706-0.572-1.278-1.278-1.278c-0.705,0-1.277,0.572-1.277,1.278
				C233.528-13.705,234.101-13.133,234.806-13.133z"/>
			<circle cx="249.206" cy="-14.411" r="1.278"/>
			<path d="M263.607-13.133c0.705,0,1.277-0.572,1.277-1.278c0-0.706-0.572-1.278-1.277-1.278c-0.706,0-1.278,0.572-1.278,1.278
				C262.328-13.705,262.9-13.133,263.607-13.133z"/>
			<path d="M278.006-13.133c0.706,0,1.278-0.572,1.278-1.278c0-0.706-0.572-1.278-1.278-1.278c-0.705,0-1.277,0.572-1.277,1.278
				C276.729-13.705,277.301-13.133,278.006-13.133z"/>
			<path d="M292.406-13.133c0.705,0,1.277-0.572,1.277-1.278c0-0.706-0.572-1.278-1.277-1.278c-0.706,0-1.278,0.572-1.278,1.278
				C291.128-13.705,291.7-13.133,292.406-13.133z"/>
			<path d="M-17.194,1.267c0.706,0,1.278-0.572,1.278-1.278s-0.572-1.278-1.278-1.278c-0.705,0-1.277,0.572-1.277,1.278
				S-17.899,1.267-17.194,1.267z"/>
			<circle cx="-2.794" cy="-0.011" r="1.278"/>
			<path d="M11.606,1.267c0.705,0,1.277-0.572,1.277-1.278s-0.572-1.278-1.277-1.278c-0.706,0-1.278,0.572-1.278,1.278
				S10.9,1.267,11.606,1.267z"/>
			<path d="M26.006,1.267c0.706,0,1.278-0.572,1.278-1.278s-0.572-1.278-1.278-1.278c-0.705,0-1.277,0.572-1.277,1.278
				S25.301,1.267,26.006,1.267z"/>
			<path d="M40.406,1.267c0.705,0,1.277-0.572,1.277-1.278s-0.572-1.278-1.277-1.278c-0.706,0-1.278,0.572-1.278,1.278
				S39.7,1.267,40.406,1.267z"/>
			<path d="M54.806,1.267c0.706,0,1.278-0.572,1.278-1.278s-0.572-1.278-1.278-1.278c-0.705,0-1.277,0.572-1.277,1.278
				S54.101,1.267,54.806,1.267z"/>
			<circle cx="69.206" cy="-0.011" r="1.278"/>
			<path d="M83.606,1.267c0.705,0,1.277-0.572,1.277-1.278s-0.572-1.278-1.277-1.278c-0.706,0-1.278,0.572-1.278,1.278
				S82.9,1.267,83.606,1.267z"/>
			<path d="M98.006,1.267c0.706,0,1.278-0.572,1.278-1.278s-0.572-1.278-1.278-1.278c-0.705,0-1.277,0.572-1.277,1.278
				S97.301,1.267,98.006,1.267z"/>
			<path d="M112.406,1.267c0.705,0,1.277-0.572,1.277-1.278s-0.572-1.278-1.277-1.278c-0.706,0-1.278,0.572-1.278,1.278
				S111.7,1.267,112.406,1.267z"/>
			<path d="M126.806,1.267c0.706,0,1.278-0.572,1.278-1.278s-0.572-1.278-1.278-1.278c-0.705,0-1.277,0.572-1.277,1.278
				S126.101,1.267,126.806,1.267z"/>
			<circle cx="141.206" cy="-0.011" r="1.278"/>
			<path d="M155.607,1.267c0.705,0,1.277-0.572,1.277-1.278s-0.572-1.278-1.277-1.278c-0.706,0-1.278,0.572-1.278,1.278
				S154.9,1.267,155.607,1.267z"/>
			<path d="M170.006,1.267c0.706,0,1.278-0.572,1.278-1.278s-0.572-1.278-1.278-1.278c-0.705,0-1.277,0.572-1.277,1.278
				S169.301,1.267,170.006,1.267z"/>
			<path d="M184.406,1.267c0.705,0,1.277-0.572,1.277-1.278s-0.572-1.278-1.277-1.278c-0.706,0-1.278,0.572-1.278,1.278
				S183.7,1.267,184.406,1.267z"/>
			<path d="M198.806,1.267c0.706,0,1.278-0.572,1.278-1.278s-0.572-1.278-1.278-1.278c-0.705,0-1.277,0.572-1.277,1.278
				S198.101,1.267,198.806,1.267z"/>
			<circle cx="213.206" cy="-0.011" r="1.278"/>
			<path d="M227.607,1.267c0.705,0,1.277-0.572,1.277-1.278s-0.572-1.278-1.277-1.278c-0.706,0-1.278,0.572-1.278,1.278
				S226.9,1.267,227.607,1.267z"/>
			<path d="M242.006,1.267c0.706,0,1.278-0.572,1.278-1.278s-0.572-1.278-1.278-1.278c-0.705,0-1.277,0.572-1.277,1.278
				S241.301,1.267,242.006,1.267z"/>
			<path d="M256.406,1.267c0.705,0,1.277-0.572,1.277-1.278s-0.572-1.278-1.277-1.278c-0.706,0-1.278,0.572-1.278,1.278
				S255.7,1.267,256.406,1.267z"/>
			<path d="M270.806,1.267c0.706,0,1.278-0.572,1.278-1.278s-0.572-1.278-1.278-1.278c-0.705,0-1.277,0.572-1.277,1.278
				S270.101,1.267,270.806,1.267z"/>
			<circle cx="285.206" cy="-0.011" r="1.278"/>
			<path d="M-9.994,15.667c0.706,0,1.278-0.572,1.278-1.278c0-0.705-0.572-1.278-1.278-1.278c-0.705,0-1.277,0.572-1.277,1.278
				C-11.271,15.094-10.699,15.667-9.994,15.667z"/>
			<path d="M4.406,15.667c0.705,0,1.277-0.572,1.277-1.278c0-0.705-0.572-1.278-1.277-1.278c-0.706,0-1.278,0.572-1.278,1.278
				C3.128,15.094,3.7,15.667,4.406,15.667z"/>
			<path d="M18.806,15.667c0.706,0,1.278-0.572,1.278-1.278c0-0.705-0.572-1.278-1.278-1.278c-0.705,0-1.277,0.572-1.277,1.278
				C17.528,15.094,18.101,15.667,18.806,15.667z"/>
			<path d="M33.206,15.667c0.706,0,1.278-0.572,1.278-1.278c0-0.705-0.572-1.278-1.278-1.278s-1.278,0.572-1.278,1.278
				C31.928,15.094,32.5,15.667,33.206,15.667z"/>
			<path d="M47.606,15.667c0.705,0,1.277-0.572,1.277-1.278c0-0.705-0.572-1.278-1.277-1.278c-0.706,0-1.278,0.572-1.278,1.278
				C46.328,15.094,46.9,15.667,47.606,15.667z"/>
			<path d="M62.006,15.667c0.706,0,1.278-0.572,1.278-1.278c0-0.705-0.572-1.278-1.278-1.278c-0.705,0-1.277,0.572-1.277,1.278
				C60.729,15.094,61.301,15.667,62.006,15.667z"/>
			<path d="M76.406,15.667c0.705,0,1.277-0.572,1.277-1.278c0-0.705-0.572-1.278-1.277-1.278c-0.706,0-1.278,0.572-1.278,1.278
				C75.128,15.094,75.7,15.667,76.406,15.667z"/>
			<path d="M90.806,15.667c0.706,0,1.278-0.572,1.278-1.278c0-0.705-0.572-1.278-1.278-1.278c-0.705,0-1.277,0.572-1.277,1.278
				C89.528,15.094,90.101,15.667,90.806,15.667z"/>
			<path d="M105.206,15.667c0.706,0,1.278-0.572,1.278-1.278c0-0.705-0.572-1.278-1.278-1.278s-1.278,0.572-1.278,1.278
				C103.928,15.094,104.5,15.667,105.206,15.667z"/>
			<path d="M119.606,15.667c0.705,0,1.277-0.572,1.277-1.278c0-0.705-0.572-1.278-1.277-1.278c-0.706,0-1.278,0.572-1.278,1.278
				C118.328,15.094,118.9,15.667,119.606,15.667z"/>
			<path d="M134.006,15.667c0.706,0,1.278-0.572,1.278-1.278c0-0.705-0.572-1.278-1.278-1.278c-0.705,0-1.277,0.572-1.277,1.278
				C132.729,15.094,133.301,15.667,134.006,15.667z"/>
			<path d="M148.406,15.667c0.705,0,1.277-0.572,1.277-1.278c0-0.705-0.572-1.278-1.277-1.278c-0.706,0-1.278,0.572-1.278,1.278
				C147.128,15.094,147.7,15.667,148.406,15.667z"/>
			<path d="M162.806,15.667c0.706,0,1.278-0.572,1.278-1.278c0-0.705-0.572-1.278-1.278-1.278c-0.705,0-1.277,0.572-1.277,1.278
				C161.528,15.094,162.101,15.667,162.806,15.667z"/>
			<path d="M177.206,15.667c0.706,0,1.278-0.572,1.278-1.278c0-0.705-0.572-1.278-1.278-1.278s-1.278,0.572-1.278,1.278
				C175.928,15.094,176.5,15.667,177.206,15.667z"/>
			<path d="M191.607,15.667c0.705,0,1.277-0.572,1.277-1.278c0-0.705-0.572-1.278-1.277-1.278c-0.706,0-1.278,0.572-1.278,1.278
				C190.328,15.094,190.9,15.667,191.607,15.667z"/>
			<path d="M206.006,15.667c0.706,0,1.278-0.572,1.278-1.278c0-0.705-0.572-1.278-1.278-1.278c-0.705,0-1.277,0.572-1.277,1.278
				C204.729,15.094,205.301,15.667,206.006,15.667z"/>
			<path d="M220.406,15.667c0.705,0,1.277-0.572,1.277-1.278c0-0.705-0.572-1.278-1.277-1.278c-0.706,0-1.278,0.572-1.278,1.278
				C219.128,15.094,219.7,15.667,220.406,15.667z"/>
			<path d="M234.806,15.667c0.706,0,1.278-0.572,1.278-1.278c0-0.705-0.572-1.278-1.278-1.278c-0.705,0-1.277,0.572-1.277,1.278
				C233.528,15.094,234.101,15.667,234.806,15.667z"/>
			<path d="M249.206,15.667c0.706,0,1.278-0.572,1.278-1.278c0-0.705-0.572-1.278-1.278-1.278s-1.278,0.572-1.278,1.278
				C247.928,15.094,248.5,15.667,249.206,15.667z"/>
			<path d="M263.607,15.667c0.705,0,1.277-0.572,1.277-1.278c0-0.705-0.572-1.278-1.277-1.278c-0.706,0-1.278,0.572-1.278,1.278
				C262.328,15.094,262.9,15.667,263.607,15.667z"/>
			<path d="M278.006,15.667c0.706,0,1.278-0.572,1.278-1.278c0-0.705-0.572-1.278-1.278-1.278c-0.705,0-1.277,0.572-1.277,1.278
				C276.729,15.094,277.301,15.667,278.006,15.667z"/>
			<path d="M292.406,15.667c0.705,0,1.277-0.572,1.277-1.278c0-0.705-0.572-1.278-1.277-1.278c-0.706,0-1.278,0.572-1.278,1.278
				C291.128,15.094,291.7,15.667,292.406,15.667z"/>
			<path d="M-17.194,30.066c0.706,0,1.278-0.572,1.278-1.278c0-0.706-0.572-1.277-1.278-1.277c-0.705,0-1.277,0.572-1.277,1.277
				C-18.472,29.495-17.899,30.066-17.194,30.066z"/>
			<path d="M-2.794,30.066c0.706,0,1.278-0.572,1.278-1.278c0-0.706-0.572-1.277-1.278-1.277s-1.278,0.572-1.278,1.277
				C-4.072,29.495-3.5,30.066-2.794,30.066z"/>
			<path d="M11.606,30.066c0.705,0,1.277-0.572,1.277-1.278c0-0.706-0.572-1.277-1.277-1.277c-0.706,0-1.278,0.572-1.278,1.277
				C10.328,29.495,10.9,30.066,11.606,30.066z"/>
			<path d="M26.006,30.066c0.706,0,1.278-0.572,1.278-1.278c0-0.706-0.572-1.277-1.278-1.277c-0.705,0-1.277,0.572-1.277,1.277
				C24.729,29.495,25.301,30.066,26.006,30.066z"/>
			<path d="M40.406,30.066c0.705,0,1.277-0.572,1.277-1.278c0-0.706-0.572-1.277-1.277-1.277c-0.706,0-1.278,0.572-1.278,1.277
				C39.128,29.495,39.7,30.066,40.406,30.066z"/>
			<path d="M54.806,30.066c0.706,0,1.278-0.572,1.278-1.278c0-0.706-0.572-1.277-1.278-1.277c-0.705,0-1.277,0.572-1.277,1.277
				C53.528,29.495,54.101,30.066,54.806,30.066z"/>
			<path d="M69.206,30.066c0.706,0,1.278-0.572,1.278-1.278c0-0.706-0.572-1.277-1.278-1.277s-1.278,0.572-1.278,1.277
				C67.928,29.495,68.5,30.066,69.206,30.066z"/>
			<path d="M83.606,30.066c0.705,0,1.277-0.572,1.277-1.278c0-0.706-0.572-1.277-1.277-1.277c-0.706,0-1.278,0.572-1.278,1.277
				C82.328,29.495,82.9,30.066,83.606,30.066z"/>
			<path d="M98.006,30.066c0.706,0,1.278-0.572,1.278-1.278c0-0.706-0.572-1.277-1.278-1.277c-0.705,0-1.277,0.572-1.277,1.277
				C96.729,29.495,97.301,30.066,98.006,30.066z"/>
			<path d="M112.406,30.066c0.705,0,1.277-0.572,1.277-1.278c0-0.706-0.572-1.277-1.277-1.277c-0.706,0-1.278,0.572-1.278,1.277
				C111.128,29.495,111.7,30.066,112.406,30.066z"/>
			<path d="M126.806,30.066c0.706,0,1.278-0.572,1.278-1.278c0-0.706-0.572-1.277-1.278-1.277c-0.705,0-1.277,0.572-1.277,1.277
				C125.528,29.495,126.101,30.066,126.806,30.066z"/>
			<path d="M141.206,30.066c0.706,0,1.278-0.572,1.278-1.278c0-0.706-0.572-1.277-1.278-1.277s-1.278,0.572-1.278,1.277
				C139.928,29.495,140.5,30.066,141.206,30.066z"/>
			<path d="M155.607,30.066c0.705,0,1.277-0.572,1.277-1.278c0-0.706-0.572-1.277-1.277-1.277c-0.706,0-1.278,0.572-1.278,1.277
				C154.328,29.495,154.9,30.066,155.607,30.066z"/>
			<path d="M170.006,30.066c0.706,0,1.278-0.572,1.278-1.278c0-0.706-0.572-1.277-1.278-1.277c-0.705,0-1.277,0.572-1.277,1.277
				C168.729,29.495,169.301,30.066,170.006,30.066z"/>
			<path d="M184.406,30.066c0.705,0,1.277-0.572,1.277-1.278c0-0.706-0.572-1.277-1.277-1.277c-0.706,0-1.278,0.572-1.278,1.277
				C183.128,29.495,183.7,30.066,184.406,30.066z"/>
			<path d="M198.806,30.066c0.706,0,1.278-0.572,1.278-1.278c0-0.706-0.572-1.277-1.278-1.277c-0.705,0-1.277,0.572-1.277,1.277
				C197.528,29.495,198.101,30.066,198.806,30.066z"/>
			<path d="M213.206,30.066c0.706,0,1.278-0.572,1.278-1.278c0-0.706-0.572-1.277-1.278-1.277s-1.278,0.572-1.278,1.277
				C211.928,29.495,212.5,30.066,213.206,30.066z"/>
			<path d="M227.607,30.066c0.705,0,1.277-0.572,1.277-1.278c0-0.706-0.572-1.277-1.277-1.277c-0.706,0-1.278,0.572-1.278,1.277
				C226.328,29.495,226.9,30.066,227.607,30.066z"/>
			<path d="M242.006,30.066c0.706,0,1.278-0.572,1.278-1.278c0-0.706-0.572-1.277-1.278-1.277c-0.705,0-1.277,0.572-1.277,1.277
				C240.729,29.495,241.301,30.066,242.006,30.066z"/>
			<path d="M256.406,30.066c0.705,0,1.277-0.572,1.277-1.278c0-0.706-0.572-1.277-1.277-1.277c-0.706,0-1.278,0.572-1.278,1.277
				C255.128,29.495,255.7,30.066,256.406,30.066z"/>
			<path d="M270.806,30.066c0.706,0,1.278-0.572,1.278-1.278c0-0.706-0.572-1.277-1.278-1.277c-0.705,0-1.277,0.572-1.277,1.277
				C269.528,29.495,270.101,30.066,270.806,30.066z"/>
			<path d="M285.206,30.066c0.706,0,1.278-0.572,1.278-1.278c0-0.706-0.572-1.277-1.278-1.277c-0.706,0-1.278,0.572-1.278,1.277
				C283.928,29.495,284.5,30.066,285.206,30.066z"/>
			<path d="M-9.994,44.466c0.706,0,1.278-0.572,1.278-1.277c0-0.706-0.572-1.278-1.278-1.278c-0.705,0-1.277,0.572-1.277,1.278
				C-11.271,43.895-10.699,44.466-9.994,44.466z"/>
			<path d="M4.406,44.466c0.705,0,1.277-0.572,1.277-1.277c0-0.706-0.572-1.278-1.277-1.278c-0.706,0-1.278,0.572-1.278,1.278
				C3.128,43.895,3.7,44.466,4.406,44.466z"/>
			<path d="M18.806,44.466c0.706,0,1.278-0.572,1.278-1.277c0-0.706-0.572-1.278-1.278-1.278c-0.705,0-1.277,0.572-1.277,1.278
				C17.528,43.895,18.101,44.466,18.806,44.466z"/>
			<path d="M33.206,44.466c0.706,0,1.278-0.572,1.278-1.277c0-0.706-0.572-1.278-1.278-1.278s-1.278,0.572-1.278,1.278
				C31.928,43.895,32.5,44.466,33.206,44.466z"/>
			<path d="M47.606,44.466c0.705,0,1.277-0.572,1.277-1.277c0-0.706-0.572-1.278-1.277-1.278c-0.706,0-1.278,0.572-1.278,1.278
				C46.328,43.895,46.9,44.466,47.606,44.466z"/>
			<path d="M62.006,44.466c0.706,0,1.278-0.572,1.278-1.277c0-0.706-0.572-1.278-1.278-1.278c-0.705,0-1.277,0.572-1.277,1.278
				C60.729,43.895,61.301,44.466,62.006,44.466z"/>
			<path d="M76.406,44.466c0.705,0,1.277-0.572,1.277-1.277c0-0.706-0.572-1.278-1.277-1.278c-0.706,0-1.278,0.572-1.278,1.278
				C75.128,43.895,75.7,44.466,76.406,44.466z"/>
			<path d="M90.806,44.466c0.706,0,1.278-0.572,1.278-1.277c0-0.706-0.572-1.278-1.278-1.278c-0.705,0-1.277,0.572-1.277,1.278
				C89.528,43.895,90.101,44.466,90.806,44.466z"/>
			<path d="M105.206,44.466c0.706,0,1.278-0.572,1.278-1.277c0-0.706-0.572-1.278-1.278-1.278s-1.278,0.572-1.278,1.278
				C103.928,43.895,104.5,44.466,105.206,44.466z"/>
			<path d="M119.606,44.466c0.705,0,1.277-0.572,1.277-1.277c0-0.706-0.572-1.278-1.277-1.278c-0.706,0-1.278,0.572-1.278,1.278
				C118.328,43.895,118.9,44.466,119.606,44.466z"/>
			<path d="M134.006,44.466c0.706,0,1.278-0.572,1.278-1.277c0-0.706-0.572-1.278-1.278-1.278c-0.705,0-1.277,0.572-1.277,1.278
				C132.729,43.895,133.301,44.466,134.006,44.466z"/>
			<path d="M148.406,44.466c0.705,0,1.277-0.572,1.277-1.277c0-0.706-0.572-1.278-1.277-1.278c-0.706,0-1.278,0.572-1.278,1.278
				C147.128,43.895,147.7,44.466,148.406,44.466z"/>
			<path d="M162.806,44.466c0.706,0,1.278-0.572,1.278-1.277c0-0.706-0.572-1.278-1.278-1.278c-0.705,0-1.277,0.572-1.277,1.278
				C161.528,43.895,162.101,44.466,162.806,44.466z"/>
			<path d="M177.206,44.466c0.706,0,1.278-0.572,1.278-1.277c0-0.706-0.572-1.278-1.278-1.278s-1.278,0.572-1.278,1.278
				C175.928,43.895,176.5,44.466,177.206,44.466z"/>
			<path d="M191.607,44.466c0.705,0,1.277-0.572,1.277-1.277c0-0.706-0.572-1.278-1.277-1.278c-0.706,0-1.278,0.572-1.278,1.278
				C190.328,43.895,190.9,44.466,191.607,44.466z"/>
			<path d="M206.006,44.466c0.706,0,1.278-0.572,1.278-1.277c0-0.706-0.572-1.278-1.278-1.278c-0.705,0-1.277,0.572-1.277,1.278
				C204.729,43.895,205.301,44.466,206.006,44.466z"/>
			<path d="M220.406,44.466c0.705,0,1.277-0.572,1.277-1.277c0-0.706-0.572-1.278-1.277-1.278c-0.706,0-1.278,0.572-1.278,1.278
				C219.128,43.895,219.7,44.466,220.406,44.466z"/>
			<path d="M234.806,44.466c0.706,0,1.278-0.572,1.278-1.277c0-0.706-0.572-1.278-1.278-1.278c-0.705,0-1.277,0.572-1.277,1.278
				C233.528,43.895,234.101,44.466,234.806,44.466z"/>
			<path d="M249.206,44.466c0.706,0,1.278-0.572,1.278-1.277c0-0.706-0.572-1.278-1.278-1.278s-1.278,0.572-1.278,1.278
				C247.928,43.895,248.5,44.466,249.206,44.466z"/>
			<path d="M263.607,44.466c0.705,0,1.277-0.572,1.277-1.277c0-0.706-0.572-1.278-1.277-1.278c-0.706,0-1.278,0.572-1.278,1.278
				C262.328,43.895,262.9,44.466,263.607,44.466z"/>
			<path d="M278.006,44.466c0.706,0,1.278-0.572,1.278-1.277c0-0.706-0.572-1.278-1.278-1.278c-0.705,0-1.277,0.572-1.277,1.278
				C276.729,43.895,277.301,44.466,278.006,44.466z"/>
			<path d="M292.406,44.466c0.705,0,1.277-0.572,1.277-1.277c0-0.706-0.572-1.278-1.277-1.278c-0.706,0-1.278,0.572-1.278,1.278
				C291.128,43.895,291.7,44.466,292.406,44.466z"/>
			<path d="M-17.194,58.867c0.706,0,1.278-0.572,1.278-1.278c0-0.706-0.572-1.278-1.278-1.278c-0.705,0-1.277,0.572-1.277,1.278
				C-18.472,58.294-17.899,58.867-17.194,58.867z"/>
			<circle cx="-2.794" cy="57.589" r="1.278"/>
			<path d="M11.606,58.867c0.705,0,1.277-0.572,1.277-1.278c0-0.706-0.572-1.278-1.277-1.278c-0.706,0-1.278,0.572-1.278,1.278
				C10.328,58.294,10.9,58.867,11.606,58.867z"/>
			<path d="M26.006,58.867c0.706,0,1.278-0.572,1.278-1.278c0-0.706-0.572-1.278-1.278-1.278c-0.705,0-1.277,0.572-1.277,1.278
				C24.729,58.294,25.301,58.867,26.006,58.867z"/>
			<path d="M40.406,58.867c0.705,0,1.277-0.572,1.277-1.278c0-0.706-0.572-1.278-1.277-1.278c-0.706,0-1.278,0.572-1.278,1.278
				C39.128,58.294,39.7,58.867,40.406,58.867z"/>
			<path d="M54.806,58.867c0.706,0,1.278-0.572,1.278-1.278c0-0.706-0.572-1.278-1.278-1.278c-0.705,0-1.277,0.572-1.277,1.278
				C53.528,58.294,54.101,58.867,54.806,58.867z"/>
			<circle cx="69.206" cy="57.589" r="1.278"/>
			<path d="M83.606,58.867c0.705,0,1.277-0.572,1.277-1.278c0-0.706-0.572-1.278-1.277-1.278c-0.706,0-1.278,0.572-1.278,1.278
				C82.328,58.294,82.9,58.867,83.606,58.867z"/>
			<path d="M98.006,58.867c0.706,0,1.278-0.572,1.278-1.278c0-0.706-0.572-1.278-1.278-1.278c-0.705,0-1.277,0.572-1.277,1.278
				C96.729,58.294,97.301,58.867,98.006,58.867z"/>
			<path d="M112.406,58.867c0.705,0,1.277-0.572,1.277-1.278c0-0.706-0.572-1.278-1.277-1.278c-0.706,0-1.278,0.572-1.278,1.278
				C111.128,58.294,111.7,58.867,112.406,58.867z"/>
			<path d="M126.806,58.867c0.706,0,1.278-0.572,1.278-1.278c0-0.706-0.572-1.278-1.278-1.278c-0.705,0-1.277,0.572-1.277,1.278
				C125.528,58.294,126.101,58.867,126.806,58.867z"/>
			<circle cx="141.206" cy="57.589" r="1.278"/>
			<path d="M155.607,58.867c0.705,0,1.277-0.572,1.277-1.278c0-0.706-0.572-1.278-1.277-1.278c-0.706,0-1.278,0.572-1.278,1.278
				C154.328,58.294,154.9,58.867,155.607,58.867z"/>
			<path d="M170.006,58.867c0.706,0,1.278-0.572,1.278-1.278c0-0.706-0.572-1.278-1.278-1.278c-0.705,0-1.277,0.572-1.277,1.278
				C168.729,58.294,169.301,58.867,170.006,58.867z"/>
			<path d="M184.406,58.867c0.705,0,1.277-0.572,1.277-1.278c0-0.706-0.572-1.278-1.277-1.278c-0.706,0-1.278,0.572-1.278,1.278
				C183.128,58.294,183.7,58.867,184.406,58.867z"/>
			<path d="M198.806,58.867c0.706,0,1.278-0.572,1.278-1.278c0-0.706-0.572-1.278-1.278-1.278c-0.705,0-1.277,0.572-1.277,1.278
				C197.528,58.294,198.101,58.867,198.806,58.867z"/>
			<circle cx="213.206" cy="57.589" r="1.278"/>
			<path d="M227.607,58.867c0.705,0,1.277-0.572,1.277-1.278c0-0.706-0.572-1.278-1.277-1.278c-0.706,0-1.278,0.572-1.278,1.278
				C226.328,58.294,226.9,58.867,227.607,58.867z"/>
			<path d="M242.006,58.867c0.706,0,1.278-0.572,1.278-1.278c0-0.706-0.572-1.278-1.278-1.278c-0.705,0-1.277,0.572-1.277,1.278
				C240.729,58.294,241.301,58.867,242.006,58.867z"/>
			<path d="M256.406,58.867c0.705,0,1.277-0.572,1.277-1.278c0-0.706-0.572-1.278-1.277-1.278c-0.706,0-1.278,0.572-1.278,1.278
				C255.128,58.294,255.7,58.867,256.406,58.867z"/>
			<path d="M270.806,58.867c0.706,0,1.278-0.572,1.278-1.278c0-0.706-0.572-1.278-1.278-1.278c-0.705,0-1.277,0.572-1.277,1.278
				C269.528,58.294,270.101,58.867,270.806,58.867z"/>
			<circle cx="285.206" cy="57.589" r="1.278"/>
			<path d="M-9.994,73.267c0.706,0,1.278-0.572,1.278-1.278s-0.572-1.278-1.278-1.278c-0.705,0-1.277,0.572-1.277,1.278
				S-10.699,73.267-9.994,73.267z"/>
			<path d="M4.406,73.267c0.705,0,1.277-0.572,1.277-1.278s-0.572-1.278-1.277-1.278c-0.706,0-1.278,0.572-1.278,1.278
				S3.7,73.267,4.406,73.267z"/>
			<path d="M18.806,73.267c0.706,0,1.278-0.572,1.278-1.278s-0.572-1.278-1.278-1.278c-0.705,0-1.277,0.572-1.277,1.278
				S18.101,73.267,18.806,73.267z"/>
			<circle cx="33.206" cy="71.989" r="1.278"/>
			<path d="M47.606,73.267c0.705,0,1.277-0.572,1.277-1.278s-0.572-1.278-1.277-1.278c-0.706,0-1.278,0.572-1.278,1.278
				S46.9,73.267,47.606,73.267z"/>
			<path d="M62.006,73.267c0.706,0,1.278-0.572,1.278-1.278s-0.572-1.278-1.278-1.278c-0.705,0-1.277,0.572-1.277,1.278
				S61.301,73.267,62.006,73.267z"/>
			<path d="M76.406,73.267c0.705,0,1.277-0.572,1.277-1.278s-0.572-1.278-1.277-1.278c-0.706,0-1.278,0.572-1.278,1.278
				S75.7,73.267,76.406,73.267z"/>
			<path d="M90.806,73.267c0.706,0,1.278-0.572,1.278-1.278s-0.572-1.278-1.278-1.278c-0.705,0-1.277,0.572-1.277,1.278
				S90.101,73.267,90.806,73.267z"/>
			<circle cx="105.206" cy="71.989" r="1.278"/>
			<path d="M119.606,73.267c0.705,0,1.277-0.572,1.277-1.278s-0.572-1.278-1.277-1.278c-0.706,0-1.278,0.572-1.278,1.278
				S118.9,73.267,119.606,73.267z"/>
			<path d="M134.006,73.267c0.706,0,1.278-0.572,1.278-1.278s-0.572-1.278-1.278-1.278c-0.705,0-1.277,0.572-1.277,1.278
				S133.301,73.267,134.006,73.267z"/>
			<path d="M148.406,73.267c0.705,0,1.277-0.572,1.277-1.278s-0.572-1.278-1.277-1.278c-0.706,0-1.278,0.572-1.278,1.278
				S147.7,73.267,148.406,73.267z"/>
			<path d="M162.806,73.267c0.706,0,1.278-0.572,1.278-1.278s-0.572-1.278-1.278-1.278c-0.705,0-1.277,0.572-1.277,1.278
				S162.101,73.267,162.806,73.267z"/>
			<circle cx="177.206" cy="71.989" r="1.278"/>
			<path d="M191.607,73.267c0.705,0,1.277-0.572,1.277-1.278s-0.572-1.278-1.277-1.278c-0.706,0-1.278,0.572-1.278,1.278
				S190.9,73.267,191.607,73.267z"/>
			<path d="M206.006,73.267c0.706,0,1.278-0.572,1.278-1.278s-0.572-1.278-1.278-1.278c-0.705,0-1.277,0.572-1.277,1.278
				S205.301,73.267,206.006,73.267z"/>
			<path d="M220.406,73.267c0.705,0,1.277-0.572,1.277-1.278s-0.572-1.278-1.277-1.278c-0.706,0-1.278,0.572-1.278,1.278
				S219.7,73.267,220.406,73.267z"/>
			<path d="M234.806,73.267c0.706,0,1.278-0.572,1.278-1.278s-0.572-1.278-1.278-1.278c-0.705,0-1.277,0.572-1.277,1.278
				S234.101,73.267,234.806,73.267z"/>
			<circle cx="249.206" cy="71.989" r="1.278"/>
			<path d="M263.607,73.267c0.705,0,1.277-0.572,1.277-1.278s-0.572-1.278-1.277-1.278c-0.706,0-1.278,0.572-1.278,1.278
				S262.9,73.267,263.607,73.267z"/>
			<path d="M278.006,73.267c0.706,0,1.278-0.572,1.278-1.278s-0.572-1.278-1.278-1.278c-0.705,0-1.277,0.572-1.277,1.278
				S277.301,73.267,278.006,73.267z"/>
			<path d="M292.406,73.267c0.705,0,1.277-0.572,1.277-1.278s-0.572-1.278-1.277-1.278c-0.706,0-1.278,0.572-1.278,1.278
				S291.7,73.267,292.406,73.267z"/>
			<path d="M-17.194,87.667c0.706,0,1.278-0.572,1.278-1.278c0-0.706-0.572-1.278-1.278-1.278c-0.705,0-1.277,0.572-1.277,1.278
				C-18.472,87.094-17.899,87.667-17.194,87.667z"/>
			<path d="M-2.794,87.667c0.706,0,1.278-0.572,1.278-1.278c0-0.706-0.572-1.278-1.278-1.278s-1.278,0.572-1.278,1.278
				C-4.072,87.094-3.5,87.667-2.794,87.667z"/>
			<path d="M11.606,87.667c0.705,0,1.277-0.572,1.277-1.278c0-0.706-0.572-1.278-1.277-1.278c-0.706,0-1.278,0.572-1.278,1.278
				C10.328,87.094,10.9,87.667,11.606,87.667z"/>
			<path d="M26.006,87.667c0.706,0,1.278-0.572,1.278-1.278c0-0.706-0.572-1.278-1.278-1.278c-0.705,0-1.277,0.572-1.277,1.278
				C24.729,87.094,25.301,87.667,26.006,87.667z"/>
			<path d="M40.406,87.667c0.705,0,1.277-0.572,1.277-1.278c0-0.706-0.572-1.278-1.277-1.278c-0.706,0-1.278,0.572-1.278,1.278
				C39.128,87.094,39.7,87.667,40.406,87.667z"/>
			<path d="M54.806,87.667c0.706,0,1.278-0.572,1.278-1.278c0-0.706-0.572-1.278-1.278-1.278c-0.705,0-1.277,0.572-1.277,1.278
				C53.528,87.094,54.101,87.667,54.806,87.667z"/>
			<path d="M69.206,87.667c0.706,0,1.278-0.572,1.278-1.278c0-0.706-0.572-1.278-1.278-1.278s-1.278,0.572-1.278,1.278
				C67.928,87.094,68.5,87.667,69.206,87.667z"/>
			<path d="M83.606,87.667c0.705,0,1.277-0.572,1.277-1.278c0-0.706-0.572-1.278-1.277-1.278c-0.706,0-1.278,0.572-1.278,1.278
				C82.328,87.094,82.9,87.667,83.606,87.667z"/>
			<path d="M98.006,87.667c0.706,0,1.278-0.572,1.278-1.278c0-0.706-0.572-1.278-1.278-1.278c-0.705,0-1.277,0.572-1.277,1.278
				C96.729,87.094,97.301,87.667,98.006,87.667z"/>
			<path d="M112.406,87.667c0.705,0,1.277-0.572,1.277-1.278c0-0.706-0.572-1.278-1.277-1.278c-0.706,0-1.278,0.572-1.278,1.278
				C111.128,87.094,111.7,87.667,112.406,87.667z"/>
			<path d="M126.806,87.667c0.706,0,1.278-0.572,1.278-1.278c0-0.706-0.572-1.278-1.278-1.278c-0.705,0-1.277,0.572-1.277,1.278
				C125.528,87.094,126.101,87.667,126.806,87.667z"/>
			<path d="M141.206,87.667c0.706,0,1.278-0.572,1.278-1.278c0-0.706-0.572-1.278-1.278-1.278s-1.278,0.572-1.278,1.278
				C139.928,87.094,140.5,87.667,141.206,87.667z"/>
			<path d="M155.607,87.667c0.705,0,1.277-0.572,1.277-1.278c0-0.706-0.572-1.278-1.277-1.278c-0.706,0-1.278,0.572-1.278,1.278
				C154.328,87.094,154.9,87.667,155.607,87.667z"/>
			<path d="M170.006,87.667c0.706,0,1.278-0.572,1.278-1.278c0-0.706-0.572-1.278-1.278-1.278c-0.705,0-1.277,0.572-1.277,1.278
				C168.729,87.094,169.301,87.667,170.006,87.667z"/>
			<path d="M184.406,87.667c0.705,0,1.277-0.572,1.277-1.278c0-0.706-0.572-1.278-1.277-1.278c-0.706,0-1.278,0.572-1.278,1.278
				C183.128,87.094,183.7,87.667,184.406,87.667z"/>
			<path d="M198.806,87.667c0.706,0,1.278-0.572,1.278-1.278c0-0.706-0.572-1.278-1.278-1.278c-0.705,0-1.277,0.572-1.277,1.278
				C197.528,87.094,198.101,87.667,198.806,87.667z"/>
			<path d="M213.206,87.667c0.706,0,1.278-0.572,1.278-1.278c0-0.706-0.572-1.278-1.278-1.278s-1.278,0.572-1.278,1.278
				C211.928,87.094,212.5,87.667,213.206,87.667z"/>
			<path d="M227.607,87.667c0.705,0,1.277-0.572,1.277-1.278c0-0.706-0.572-1.278-1.277-1.278c-0.706,0-1.278,0.572-1.278,1.278
				C226.328,87.094,226.9,87.667,227.607,87.667z"/>
			<path d="M242.006,87.667c0.706,0,1.278-0.572,1.278-1.278c0-0.706-0.572-1.278-1.278-1.278c-0.705,0-1.277,0.572-1.277,1.278
				C240.729,87.094,241.301,87.667,242.006,87.667z"/>
			<path d="M256.406,87.667c0.705,0,1.277-0.572,1.277-1.278c0-0.706-0.572-1.278-1.277-1.278c-0.706,0-1.278,0.572-1.278,1.278
				C255.128,87.094,255.7,87.667,256.406,87.667z"/>
			<path d="M270.806,87.667c0.706,0,1.278-0.572,1.278-1.278c0-0.706-0.572-1.278-1.278-1.278c-0.705,0-1.277,0.572-1.277,1.278
				C269.528,87.094,270.101,87.667,270.806,87.667z"/>
			<path d="M285.206,87.667c0.706,0,1.278-0.572,1.278-1.278c0-0.706-0.572-1.278-1.278-1.278c-0.706,0-1.278,0.572-1.278,1.278
				C283.928,87.094,284.5,87.667,285.206,87.667z"/>
			<path d="M-9.994,102.066c0.706,0,1.278-0.572,1.278-1.278c0-0.705-0.572-1.277-1.278-1.277c-0.705,0-1.277,0.572-1.277,1.277
				C-11.271,101.495-10.699,102.066-9.994,102.066z"/>
			<path d="M4.406,102.066c0.705,0,1.277-0.572,1.277-1.278c0-0.705-0.572-1.277-1.277-1.277c-0.706,0-1.278,0.572-1.278,1.277
				C3.128,101.495,3.7,102.066,4.406,102.066z"/>
			<path d="M18.806,102.066c0.706,0,1.278-0.572,1.278-1.278c0-0.705-0.572-1.277-1.278-1.277c-0.705,0-1.277,0.572-1.277,1.277
				C17.528,101.495,18.101,102.066,18.806,102.066z"/>
			<path d="M33.206,102.066c0.706,0,1.278-0.572,1.278-1.278c0-0.705-0.572-1.277-1.278-1.277s-1.278,0.572-1.278,1.277
				C31.928,101.495,32.5,102.066,33.206,102.066z"/>
			<path d="M47.606,102.066c0.705,0,1.277-0.572,1.277-1.278c0-0.705-0.572-1.277-1.277-1.277c-0.706,0-1.278,0.572-1.278,1.277
				C46.328,101.495,46.9,102.066,47.606,102.066z"/>
			<path d="M62.006,102.066c0.706,0,1.278-0.572,1.278-1.278c0-0.705-0.572-1.277-1.278-1.277c-0.705,0-1.277,0.572-1.277,1.277
				C60.729,101.495,61.301,102.066,62.006,102.066z"/>
			<path d="M76.406,102.066c0.705,0,1.277-0.572,1.277-1.278c0-0.705-0.572-1.277-1.277-1.277c-0.706,0-1.278,0.572-1.278,1.277
				C75.128,101.495,75.7,102.066,76.406,102.066z"/>
			<path d="M90.806,102.066c0.706,0,1.278-0.572,1.278-1.278c0-0.705-0.572-1.277-1.278-1.277c-0.705,0-1.277,0.572-1.277,1.277
				C89.528,101.495,90.101,102.066,90.806,102.066z"/>
			<path d="M105.206,102.066c0.706,0,1.278-0.572,1.278-1.278c0-0.705-0.572-1.277-1.278-1.277s-1.278,0.572-1.278,1.277
				C103.928,101.495,104.5,102.066,105.206,102.066z"/>
			<path d="M119.606,102.066c0.705,0,1.277-0.572,1.277-1.278c0-0.705-0.572-1.277-1.277-1.277c-0.706,0-1.278,0.572-1.278,1.277
				C118.328,101.495,118.9,102.066,119.606,102.066z"/>
			<path d="M134.006,102.066c0.706,0,1.278-0.572,1.278-1.278c0-0.705-0.572-1.277-1.278-1.277c-0.705,0-1.277,0.572-1.277,1.277
				C132.729,101.495,133.301,102.066,134.006,102.066z"/>
			<path d="M148.406,102.066c0.705,0,1.277-0.572,1.277-1.278c0-0.705-0.572-1.277-1.277-1.277c-0.706,0-1.278,0.572-1.278,1.277
				C147.128,101.495,147.7,102.066,148.406,102.066z"/>
			<path d="M162.806,102.066c0.706,0,1.278-0.572,1.278-1.278c0-0.705-0.572-1.277-1.278-1.277c-0.705,0-1.277,0.572-1.277,1.277
				C161.528,101.495,162.101,102.066,162.806,102.066z"/>
			<path d="M177.206,102.066c0.706,0,1.278-0.572,1.278-1.278c0-0.705-0.572-1.277-1.278-1.277s-1.278,0.572-1.278,1.277
				C175.928,101.495,176.5,102.066,177.206,102.066z"/>
			<path d="M191.607,102.066c0.705,0,1.277-0.572,1.277-1.278c0-0.705-0.572-1.277-1.277-1.277c-0.706,0-1.278,0.572-1.278,1.277
				C190.328,101.495,190.9,102.066,191.607,102.066z"/>
			<path d="M206.006,102.066c0.706,0,1.278-0.572,1.278-1.278c0-0.705-0.572-1.277-1.278-1.277c-0.705,0-1.277,0.572-1.277,1.277
				C204.729,101.495,205.301,102.066,206.006,102.066z"/>
			<path d="M220.406,102.066c0.705,0,1.277-0.572,1.277-1.278c0-0.705-0.572-1.277-1.277-1.277c-0.706,0-1.278,0.572-1.278,1.277
				C219.128,101.495,219.7,102.066,220.406,102.066z"/>
			<path d="M234.806,102.066c0.706,0,1.278-0.572,1.278-1.278c0-0.705-0.572-1.277-1.278-1.277c-0.705,0-1.277,0.572-1.277,1.277
				C233.528,101.495,234.101,102.066,234.806,102.066z"/>
			<path d="M249.206,102.066c0.706,0,1.278-0.572,1.278-1.278c0-0.705-0.572-1.277-1.278-1.277s-1.278,0.572-1.278,1.277
				C247.928,101.495,248.5,102.066,249.206,102.066z"/>
			<path d="M263.607,102.066c0.705,0,1.277-0.572,1.277-1.278c0-0.705-0.572-1.277-1.277-1.277c-0.706,0-1.278,0.572-1.278,1.277
				C262.328,101.495,262.9,102.066,263.607,102.066z"/>
			<path d="M278.006,102.066c0.706,0,1.278-0.572,1.278-1.278c0-0.705-0.572-1.277-1.278-1.277c-0.705,0-1.277,0.572-1.277,1.277
				C276.729,101.495,277.301,102.066,278.006,102.066z"/>
			<path d="M292.406,102.066c0.705,0,1.277-0.572,1.277-1.278c0-0.705-0.572-1.277-1.277-1.277c-0.706,0-1.278,0.572-1.278,1.277
				C291.128,101.495,291.7,102.066,292.406,102.066z"/>
			<path d="M-17.194,116.466c0.706,0,1.278-0.572,1.278-1.277c0-0.706-0.572-1.278-1.278-1.278c-0.705,0-1.277,0.572-1.277,1.278
				C-18.472,115.895-17.899,116.466-17.194,116.466z"/>
			<path d="M-2.794,116.466c0.706,0,1.278-0.572,1.278-1.277c0-0.706-0.572-1.278-1.278-1.278s-1.278,0.572-1.278,1.278
				C-4.072,115.895-3.5,116.466-2.794,116.466z"/>
			<path d="M11.606,116.466c0.705,0,1.277-0.572,1.277-1.277c0-0.706-0.572-1.278-1.277-1.278c-0.706,0-1.278,0.572-1.278,1.278
				C10.328,115.895,10.9,116.466,11.606,116.466z"/>
			<path d="M26.006,116.466c0.706,0,1.278-0.572,1.278-1.277c0-0.706-0.572-1.278-1.278-1.278c-0.705,0-1.277,0.572-1.277,1.278
				C24.729,115.895,25.301,116.466,26.006,116.466z"/>
			<path d="M40.406,116.466c0.705,0,1.277-0.572,1.277-1.277c0-0.706-0.572-1.278-1.277-1.278c-0.706,0-1.278,0.572-1.278,1.278
				C39.128,115.895,39.7,116.466,40.406,116.466z"/>
			<path d="M54.806,116.466c0.706,0,1.278-0.572,1.278-1.277c0-0.706-0.572-1.278-1.278-1.278c-0.705,0-1.277,0.572-1.277,1.278
				C53.528,115.895,54.101,116.466,54.806,116.466z"/>
			<path d="M69.206,116.466c0.706,0,1.278-0.572,1.278-1.277c0-0.706-0.572-1.278-1.278-1.278s-1.278,0.572-1.278,1.278
				C67.928,115.895,68.5,116.466,69.206,116.466z"/>
			<path d="M83.606,116.466c0.705,0,1.277-0.572,1.277-1.277c0-0.706-0.572-1.278-1.277-1.278c-0.706,0-1.278,0.572-1.278,1.278
				C82.328,115.895,82.9,116.466,83.606,116.466z"/>
			<path d="M98.006,116.466c0.706,0,1.278-0.572,1.278-1.277c0-0.706-0.572-1.278-1.278-1.278c-0.705,0-1.277,0.572-1.277,1.278
				C96.729,115.895,97.301,116.466,98.006,116.466z"/>
			<path d="M112.406,116.466c0.705,0,1.277-0.572,1.277-1.277c0-0.706-0.572-1.278-1.277-1.278c-0.706,0-1.278,0.572-1.278,1.278
				C111.128,115.895,111.7,116.466,112.406,116.466z"/>
			<path d="M126.806,116.466c0.706,0,1.278-0.572,1.278-1.277c0-0.706-0.572-1.278-1.278-1.278c-0.705,0-1.277,0.572-1.277,1.278
				C125.528,115.895,126.101,116.466,126.806,116.466z"/>
			<path d="M141.206,116.466c0.706,0,1.278-0.572,1.278-1.277c0-0.706-0.572-1.278-1.278-1.278s-1.278,0.572-1.278,1.278
				C139.928,115.895,140.5,116.466,141.206,116.466z"/>
			<path d="M155.607,116.466c0.705,0,1.277-0.572,1.277-1.277c0-0.706-0.572-1.278-1.277-1.278c-0.706,0-1.278,0.572-1.278,1.278
				C154.328,115.895,154.9,116.466,155.607,116.466z"/>
			<path d="M170.006,116.466c0.706,0,1.278-0.572,1.278-1.277c0-0.706-0.572-1.278-1.278-1.278c-0.705,0-1.277,0.572-1.277,1.278
				C168.729,115.895,169.301,116.466,170.006,116.466z"/>
			<path d="M184.406,116.466c0.705,0,1.277-0.572,1.277-1.277c0-0.706-0.572-1.278-1.277-1.278c-0.706,0-1.278,0.572-1.278,1.278
				C183.128,115.895,183.7,116.466,184.406,116.466z"/>
			<path d="M198.806,116.466c0.706,0,1.278-0.572,1.278-1.277c0-0.706-0.572-1.278-1.278-1.278c-0.705,0-1.277,0.572-1.277,1.278
				C197.528,115.895,198.101,116.466,198.806,116.466z"/>
			<path d="M213.206,116.466c0.706,0,1.278-0.572,1.278-1.277c0-0.706-0.572-1.278-1.278-1.278s-1.278,0.572-1.278,1.278
				C211.928,115.895,212.5,116.466,213.206,116.466z"/>
			<path d="M227.607,116.466c0.705,0,1.277-0.572,1.277-1.277c0-0.706-0.572-1.278-1.277-1.278c-0.706,0-1.278,0.572-1.278,1.278
				C226.328,115.895,226.9,116.466,227.607,116.466z"/>
			<path d="M242.006,116.466c0.706,0,1.278-0.572,1.278-1.277c0-0.706-0.572-1.278-1.278-1.278c-0.705,0-1.277,0.572-1.277,1.278
				C240.729,115.895,241.301,116.466,242.006,116.466z"/>
			<path d="M256.406,116.466c0.705,0,1.277-0.572,1.277-1.277c0-0.706-0.572-1.278-1.277-1.278c-0.706,0-1.278,0.572-1.278,1.278
				C255.128,115.895,255.7,116.466,256.406,116.466z"/>
			<path d="M270.806,116.466c0.706,0,1.278-0.572,1.278-1.277c0-0.706-0.572-1.278-1.278-1.278c-0.705,0-1.277,0.572-1.277,1.278
				C269.528,115.895,270.101,116.466,270.806,116.466z"/>
			<path d="M285.206,116.466c0.706,0,1.278-0.572,1.278-1.277c0-0.706-0.572-1.278-1.278-1.278c-0.706,0-1.278,0.572-1.278,1.278
				C283.928,115.895,284.5,116.466,285.206,116.466z"/>
			<path d="M-9.994,130.867c0.706,0,1.278-0.572,1.278-1.278s-0.572-1.278-1.278-1.278c-0.705,0-1.277,0.572-1.277,1.278
				S-10.699,130.867-9.994,130.867z"/>
			<path d="M4.406,130.867c0.705,0,1.277-0.572,1.277-1.278s-0.572-1.278-1.277-1.278c-0.706,0-1.278,0.572-1.278,1.278
				S3.7,130.867,4.406,130.867z"/>
			<path d="M18.806,130.867c0.706,0,1.278-0.572,1.278-1.278s-0.572-1.278-1.278-1.278c-0.705,0-1.277,0.572-1.277,1.278
				S18.101,130.867,18.806,130.867z"/>
			<circle cx="33.206" cy="129.589" r="1.278"/>
			<path d="M47.606,130.867c0.705,0,1.277-0.572,1.277-1.278s-0.572-1.278-1.277-1.278c-0.706,0-1.278,0.572-1.278,1.278
				S46.9,130.867,47.606,130.867z"/>
			<path d="M62.006,130.867c0.706,0,1.278-0.572,1.278-1.278s-0.572-1.278-1.278-1.278c-0.705,0-1.277,0.572-1.277,1.278
				S61.301,130.867,62.006,130.867z"/>
			<path d="M76.406,130.867c0.705,0,1.277-0.572,1.277-1.278s-0.572-1.278-1.277-1.278c-0.706,0-1.278,0.572-1.278,1.278
				S75.7,130.867,76.406,130.867z"/>
			<path d="M90.806,130.867c0.706,0,1.278-0.572,1.278-1.278s-0.572-1.278-1.278-1.278c-0.705,0-1.277,0.572-1.277,1.278
				S90.101,130.867,90.806,130.867z"/>
			<circle cx="105.206" cy="129.589" r="1.278"/>
			<path d="M119.606,130.867c0.705,0,1.277-0.572,1.277-1.278s-0.572-1.278-1.277-1.278c-0.706,0-1.278,0.572-1.278,1.278
				S118.9,130.867,119.606,130.867z"/>
			<path d="M134.006,130.867c0.706,0,1.278-0.572,1.278-1.278s-0.572-1.278-1.278-1.278c-0.705,0-1.277,0.572-1.277,1.278
				S133.301,130.867,134.006,130.867z"/>
			<path d="M148.406,130.867c0.705,0,1.277-0.572,1.277-1.278s-0.572-1.278-1.277-1.278c-0.706,0-1.278,0.572-1.278,1.278
				S147.7,130.867,148.406,130.867z"/>
			<path d="M162.806,130.867c0.706,0,1.278-0.572,1.278-1.278s-0.572-1.278-1.278-1.278c-0.705,0-1.277,0.572-1.277,1.278
				S162.101,130.867,162.806,130.867z"/>
			<circle cx="177.206" cy="129.589" r="1.278"/>
			<path d="M191.607,130.867c0.705,0,1.277-0.572,1.277-1.278s-0.572-1.278-1.277-1.278c-0.706,0-1.278,0.572-1.278,1.278
				S190.9,130.867,191.607,130.867z"/>
			<path d="M206.006,130.867c0.706,0,1.278-0.572,1.278-1.278s-0.572-1.278-1.278-1.278c-0.705,0-1.277,0.572-1.277,1.278
				S205.301,130.867,206.006,130.867z"/>
			<path d="M220.406,130.867c0.705,0,1.277-0.572,1.277-1.278s-0.572-1.278-1.277-1.278c-0.706,0-1.278,0.572-1.278,1.278
				S219.7,130.867,220.406,130.867z"/>
			<path d="M234.806,130.867c0.706,0,1.278-0.572,1.278-1.278s-0.572-1.278-1.278-1.278c-0.705,0-1.277,0.572-1.277,1.278
				S234.101,130.867,234.806,130.867z"/>
			<circle cx="249.206" cy="129.589" r="1.278"/>
			<path d="M263.607,130.867c0.705,0,1.277-0.572,1.277-1.278s-0.572-1.278-1.277-1.278c-0.706,0-1.278,0.572-1.278,1.278
				S262.9,130.867,263.607,130.867z"/>
			<path d="M278.006,130.867c0.706,0,1.278-0.572,1.278-1.278s-0.572-1.278-1.278-1.278c-0.705,0-1.277,0.572-1.277,1.278
				S277.301,130.867,278.006,130.867z"/>
			<path d="M292.406,130.867c0.705,0,1.277-0.572,1.277-1.278s-0.572-1.278-1.277-1.278c-0.706,0-1.278,0.572-1.278,1.278
				S291.7,130.867,292.406,130.867z"/>
			<path d="M-17.194,145.267c0.706,0,1.278-0.572,1.278-1.278s-0.572-1.278-1.278-1.278c-0.705,0-1.277,0.572-1.277,1.278
				S-17.899,145.267-17.194,145.267z"/>
			<circle cx="-2.794" cy="143.989" r="1.278"/>
			<path d="M11.606,145.267c0.705,0,1.277-0.572,1.277-1.278s-0.572-1.278-1.277-1.278c-0.706,0-1.278,0.572-1.278,1.278
				S10.9,145.267,11.606,145.267z"/>
			<path d="M26.006,145.267c0.706,0,1.278-0.572,1.278-1.278s-0.572-1.278-1.278-1.278c-0.705,0-1.277,0.572-1.277,1.278
				S25.301,145.267,26.006,145.267z"/>
			<path d="M40.406,145.267c0.705,0,1.277-0.572,1.277-1.278s-0.572-1.278-1.277-1.278c-0.706,0-1.278,0.572-1.278,1.278
				S39.7,145.267,40.406,145.267z"/>
			<path d="M54.806,145.267c0.706,0,1.278-0.572,1.278-1.278s-0.572-1.278-1.278-1.278c-0.705,0-1.277,0.572-1.277,1.278
				S54.101,145.267,54.806,145.267z"/>
			<circle cx="69.206" cy="143.989" r="1.278"/>
			<path d="M83.606,145.267c0.705,0,1.277-0.572,1.277-1.278s-0.572-1.278-1.277-1.278c-0.706,0-1.278,0.572-1.278,1.278
				S82.9,145.267,83.606,145.267z"/>
			<path d="M98.006,145.267c0.706,0,1.278-0.572,1.278-1.278s-0.572-1.278-1.278-1.278c-0.705,0-1.277,0.572-1.277,1.278
				S97.301,145.267,98.006,145.267z"/>
			<path d="M112.406,145.267c0.705,0,1.277-0.572,1.277-1.278s-0.572-1.278-1.277-1.278c-0.706,0-1.278,0.572-1.278,1.278
				S111.7,145.267,112.406,145.267z"/>
			<path d="M126.806,145.267c0.706,0,1.278-0.572,1.278-1.278s-0.572-1.278-1.278-1.278c-0.705,0-1.277,0.572-1.277,1.278
				S126.101,145.267,126.806,145.267z"/>
			<circle cx="141.206" cy="143.989" r="1.278"/>
			<path d="M155.607,145.267c0.705,0,1.277-0.572,1.277-1.278s-0.572-1.278-1.277-1.278c-0.706,0-1.278,0.572-1.278,1.278
				S154.9,145.267,155.607,145.267z"/>
			<path d="M170.006,145.267c0.706,0,1.278-0.572,1.278-1.278s-0.572-1.278-1.278-1.278c-0.705,0-1.277,0.572-1.277,1.278
				S169.301,145.267,170.006,145.267z"/>
			<path d="M184.406,145.267c0.705,0,1.277-0.572,1.277-1.278s-0.572-1.278-1.277-1.278c-0.706,0-1.278,0.572-1.278,1.278
				S183.7,145.267,184.406,145.267z"/>
			<path d="M198.806,145.267c0.706,0,1.278-0.572,1.278-1.278s-0.572-1.278-1.278-1.278c-0.705,0-1.277,0.572-1.277,1.278
				S198.101,145.267,198.806,145.267z"/>
			<circle cx="213.206" cy="143.989" r="1.278"/>
			<path d="M227.607,145.267c0.705,0,1.277-0.572,1.277-1.278s-0.572-1.278-1.277-1.278c-0.706,0-1.278,0.572-1.278,1.278
				S226.9,145.267,227.607,145.267z"/>
			<path d="M242.006,145.267c0.706,0,1.278-0.572,1.278-1.278s-0.572-1.278-1.278-1.278c-0.705,0-1.277,0.572-1.277,1.278
				S241.301,145.267,242.006,145.267z"/>
			<path d="M256.406,145.267c0.705,0,1.277-0.572,1.277-1.278s-0.572-1.278-1.277-1.278c-0.706,0-1.278,0.572-1.278,1.278
				S255.7,145.267,256.406,145.267z"/>
			<path d="M270.806,145.267c0.706,0,1.278-0.572,1.278-1.278s-0.572-1.278-1.278-1.278c-0.705,0-1.277,0.572-1.277,1.278
				S270.101,145.267,270.806,145.267z"/>
			<circle cx="285.206" cy="143.989" r="1.278"/>
			<path d="M-9.994,159.667c0.706,0,1.278-0.572,1.278-1.278c0-0.706-0.572-1.278-1.278-1.278c-0.705,0-1.277,0.572-1.277,1.278
				C-11.271,159.094-10.699,159.667-9.994,159.667z"/>
			<path d="M4.406,159.667c0.705,0,1.277-0.572,1.277-1.278c0-0.706-0.572-1.278-1.277-1.278c-0.706,0-1.278,0.572-1.278,1.278
				C3.128,159.094,3.7,159.667,4.406,159.667z"/>
			<path d="M18.806,159.667c0.706,0,1.278-0.572,1.278-1.278c0-0.706-0.572-1.278-1.278-1.278c-0.705,0-1.277,0.572-1.277,1.278
				C17.528,159.094,18.101,159.667,18.806,159.667z"/>
			<path d="M33.206,159.667c0.706,0,1.278-0.572,1.278-1.278c0-0.706-0.572-1.278-1.278-1.278s-1.278,0.572-1.278,1.278
				C31.928,159.094,32.5,159.667,33.206,159.667z"/>
			<path d="M47.606,159.667c0.705,0,1.277-0.572,1.277-1.278c0-0.706-0.572-1.278-1.277-1.278c-0.706,0-1.278,0.572-1.278,1.278
				C46.328,159.094,46.9,159.667,47.606,159.667z"/>
			<path d="M62.006,159.667c0.706,0,1.278-0.572,1.278-1.278c0-0.706-0.572-1.278-1.278-1.278c-0.705,0-1.277,0.572-1.277,1.278
				C60.729,159.094,61.301,159.667,62.006,159.667z"/>
			<path d="M76.406,159.667c0.705,0,1.277-0.572,1.277-1.278c0-0.706-0.572-1.278-1.277-1.278c-0.706,0-1.278,0.572-1.278,1.278
				C75.128,159.094,75.7,159.667,76.406,159.667z"/>
			<path d="M90.806,159.667c0.706,0,1.278-0.572,1.278-1.278c0-0.706-0.572-1.278-1.278-1.278c-0.705,0-1.277,0.572-1.277,1.278
				C89.528,159.094,90.101,159.667,90.806,159.667z"/>
			<path d="M105.206,159.667c0.706,0,1.278-0.572,1.278-1.278c0-0.706-0.572-1.278-1.278-1.278s-1.278,0.572-1.278,1.278
				C103.928,159.094,104.5,159.667,105.206,159.667z"/>
			<path d="M119.606,159.667c0.705,0,1.277-0.572,1.277-1.278c0-0.706-0.572-1.278-1.277-1.278c-0.706,0-1.278,0.572-1.278,1.278
				C118.328,159.094,118.9,159.667,119.606,159.667z"/>
			<path d="M134.006,159.667c0.706,0,1.278-0.572,1.278-1.278c0-0.706-0.572-1.278-1.278-1.278c-0.705,0-1.277,0.572-1.277,1.278
				C132.729,159.094,133.301,159.667,134.006,159.667z"/>
			<path d="M148.406,159.667c0.705,0,1.277-0.572,1.277-1.278c0-0.706-0.572-1.278-1.277-1.278c-0.706,0-1.278,0.572-1.278,1.278
				C147.128,159.094,147.7,159.667,148.406,159.667z"/>
			<path d="M162.806,159.667c0.706,0,1.278-0.572,1.278-1.278c0-0.706-0.572-1.278-1.278-1.278c-0.705,0-1.277,0.572-1.277,1.278
				C161.528,159.094,162.101,159.667,162.806,159.667z"/>
			<path d="M177.206,159.667c0.706,0,1.278-0.572,1.278-1.278c0-0.706-0.572-1.278-1.278-1.278s-1.278,0.572-1.278,1.278
				C175.928,159.094,176.5,159.667,177.206,159.667z"/>
			<path d="M191.607,159.667c0.705,0,1.277-0.572,1.277-1.278c0-0.706-0.572-1.278-1.277-1.278c-0.706,0-1.278,0.572-1.278,1.278
				C190.328,159.094,190.9,159.667,191.607,159.667z"/>
			<path d="M206.006,159.667c0.706,0,1.278-0.572,1.278-1.278c0-0.706-0.572-1.278-1.278-1.278c-0.705,0-1.277,0.572-1.277,1.278
				C204.729,159.094,205.301,159.667,206.006,159.667z"/>
			<path d="M220.406,159.667c0.705,0,1.277-0.572,1.277-1.278c0-0.706-0.572-1.278-1.277-1.278c-0.706,0-1.278,0.572-1.278,1.278
				C219.128,159.094,219.7,159.667,220.406,159.667z"/>
			<path d="M234.806,159.667c0.706,0,1.278-0.572,1.278-1.278c0-0.706-0.572-1.278-1.278-1.278c-0.705,0-1.277,0.572-1.277,1.278
				C233.528,159.094,234.101,159.667,234.806,159.667z"/>
			<path d="M249.206,159.667c0.706,0,1.278-0.572,1.278-1.278c0-0.706-0.572-1.278-1.278-1.278s-1.278,0.572-1.278,1.278
				C247.928,159.094,248.5,159.667,249.206,159.667z"/>
			<path d="M263.607,159.667c0.705,0,1.277-0.572,1.277-1.278c0-0.706-0.572-1.278-1.277-1.278c-0.706,0-1.278,0.572-1.278,1.278
				C262.328,159.094,262.9,159.667,263.607,159.667z"/>
			<path d="M278.006,159.667c0.706,0,1.278-0.572,1.278-1.278c0-0.706-0.572-1.278-1.278-1.278c-0.705,0-1.277,0.572-1.277,1.278
				C276.729,159.094,277.301,159.667,278.006,159.667z"/>
			<path d="M292.406,159.667c0.705,0,1.277-0.572,1.277-1.278c0-0.706-0.572-1.278-1.277-1.278c-0.706,0-1.278,0.572-1.278,1.278
				C291.128,159.094,291.7,159.667,292.406,159.667z"/>
			<path d="M-17.194,174.066c0.706,0,1.278-0.572,1.278-1.278c0-0.706-0.572-1.277-1.278-1.277c-0.705,0-1.277,0.572-1.277,1.277
				C-18.472,173.495-17.899,174.066-17.194,174.066z"/>
			<path d="M-2.794,174.066c0.706,0,1.278-0.572,1.278-1.278c0-0.706-0.572-1.277-1.278-1.277s-1.278,0.572-1.278,1.277
				C-4.072,173.495-3.5,174.066-2.794,174.066z"/>
			<path d="M11.606,174.066c0.705,0,1.277-0.572,1.277-1.278c0-0.706-0.572-1.277-1.277-1.277c-0.706,0-1.278,0.572-1.278,1.277
				C10.328,173.495,10.9,174.066,11.606,174.066z"/>
			<path d="M26.006,174.066c0.706,0,1.278-0.572,1.278-1.278c0-0.706-0.572-1.277-1.278-1.277c-0.705,0-1.277,0.572-1.277,1.277
				C24.729,173.495,25.301,174.066,26.006,174.066z"/>
			<path d="M40.406,174.066c0.705,0,1.277-0.572,1.277-1.278c0-0.706-0.572-1.277-1.277-1.277c-0.706,0-1.278,0.572-1.278,1.277
				C39.128,173.495,39.7,174.066,40.406,174.066z"/>
			<path d="M54.806,174.066c0.706,0,1.278-0.572,1.278-1.278c0-0.706-0.572-1.277-1.278-1.277c-0.705,0-1.277,0.572-1.277,1.277
				C53.528,173.495,54.101,174.066,54.806,174.066z"/>
			<path d="M69.206,174.066c0.706,0,1.278-0.572,1.278-1.278c0-0.706-0.572-1.277-1.278-1.277s-1.278,0.572-1.278,1.277
				C67.928,173.495,68.5,174.066,69.206,174.066z"/>
			<path d="M83.606,174.066c0.705,0,1.277-0.572,1.277-1.278c0-0.706-0.572-1.277-1.277-1.277c-0.706,0-1.278,0.572-1.278,1.277
				C82.328,173.495,82.9,174.066,83.606,174.066z"/>
			<path d="M98.006,174.066c0.706,0,1.278-0.572,1.278-1.278c0-0.706-0.572-1.277-1.278-1.277c-0.705,0-1.277,0.572-1.277,1.277
				C96.729,173.495,97.301,174.066,98.006,174.066z"/>
			<path d="M112.406,174.066c0.705,0,1.277-0.572,1.277-1.278c0-0.706-0.572-1.277-1.277-1.277c-0.706,0-1.278,0.572-1.278,1.277
				C111.128,173.495,111.7,174.066,112.406,174.066z"/>
			<path d="M126.806,174.066c0.706,0,1.278-0.572,1.278-1.278c0-0.706-0.572-1.277-1.278-1.277c-0.705,0-1.277,0.572-1.277,1.277
				C125.528,173.495,126.101,174.066,126.806,174.066z"/>
			<path d="M141.206,174.066c0.706,0,1.278-0.572,1.278-1.278c0-0.706-0.572-1.277-1.278-1.277s-1.278,0.572-1.278,1.277
				C139.928,173.495,140.5,174.066,141.206,174.066z"/>
			<path d="M155.607,174.066c0.705,0,1.277-0.572,1.277-1.278c0-0.706-0.572-1.277-1.277-1.277c-0.706,0-1.278,0.572-1.278,1.277
				C154.328,173.495,154.9,174.066,155.607,174.066z"/>
			<path d="M170.006,174.066c0.706,0,1.278-0.572,1.278-1.278c0-0.706-0.572-1.277-1.278-1.277c-0.705,0-1.277,0.572-1.277,1.277
				C168.729,173.495,169.301,174.066,170.006,174.066z"/>
			<path d="M184.406,174.066c0.705,0,1.277-0.572,1.277-1.278c0-0.706-0.572-1.277-1.277-1.277c-0.706,0-1.278,0.572-1.278,1.277
				C183.128,173.495,183.7,174.066,184.406,174.066z"/>
			<path d="M198.806,174.066c0.706,0,1.278-0.572,1.278-1.278c0-0.706-0.572-1.277-1.278-1.277c-0.705,0-1.277,0.572-1.277,1.277
				C197.528,173.495,198.101,174.066,198.806,174.066z"/>
			<path d="M213.206,174.066c0.706,0,1.278-0.572,1.278-1.278c0-0.706-0.572-1.277-1.278-1.277s-1.278,0.572-1.278,1.277
				C211.928,173.495,212.5,174.066,213.206,174.066z"/>
			<path d="M227.607,174.066c0.705,0,1.277-0.572,1.277-1.278c0-0.706-0.572-1.277-1.277-1.277c-0.706,0-1.278,0.572-1.278,1.277
				C226.328,173.495,226.9,174.066,227.607,174.066z"/>
			<path d="M242.006,174.066c0.706,0,1.278-0.572,1.278-1.278c0-0.706-0.572-1.277-1.278-1.277c-0.705,0-1.277,0.572-1.277,1.277
				C240.729,173.495,241.301,174.066,242.006,174.066z"/>
			<path d="M256.406,174.066c0.705,0,1.277-0.572,1.277-1.278c0-0.706-0.572-1.277-1.277-1.277c-0.706,0-1.278,0.572-1.278,1.277
				C255.128,173.495,255.7,174.066,256.406,174.066z"/>
			<path d="M270.806,174.066c0.706,0,1.278-0.572,1.278-1.278c0-0.706-0.572-1.277-1.278-1.277c-0.705,0-1.277,0.572-1.277,1.277
				C269.528,173.495,270.101,174.066,270.806,174.066z"/>
			<path d="M285.206,174.066c0.706,0,1.278-0.572,1.278-1.278c0-0.706-0.572-1.277-1.278-1.277c-0.706,0-1.278,0.572-1.278,1.277
				C283.928,173.495,284.5,174.066,285.206,174.066z"/>
			<path d="M-9.994,188.466c0.706,0,1.278-0.572,1.278-1.277c0-0.706-0.572-1.278-1.278-1.278c-0.705,0-1.277,0.572-1.277,1.278
				C-11.271,187.895-10.699,188.466-9.994,188.466z"/>
			<path d="M4.406,188.466c0.705,0,1.277-0.572,1.277-1.277c0-0.706-0.572-1.278-1.277-1.278c-0.706,0-1.278,0.572-1.278,1.278
				C3.128,187.895,3.7,188.466,4.406,188.466z"/>
			<path d="M18.806,188.466c0.706,0,1.278-0.572,1.278-1.277c0-0.706-0.572-1.278-1.278-1.278c-0.705,0-1.277,0.572-1.277,1.278
				C17.528,187.895,18.101,188.466,18.806,188.466z"/>
			<path d="M33.206,188.466c0.706,0,1.278-0.572,1.278-1.277c0-0.706-0.572-1.278-1.278-1.278s-1.278,0.572-1.278,1.278
				C31.928,187.895,32.5,188.466,33.206,188.466z"/>
			<path d="M47.606,188.466c0.705,0,1.277-0.572,1.277-1.277c0-0.706-0.572-1.278-1.277-1.278c-0.706,0-1.278,0.572-1.278,1.278
				C46.328,187.895,46.9,188.466,47.606,188.466z"/>
			<path d="M62.006,188.466c0.706,0,1.278-0.572,1.278-1.277c0-0.706-0.572-1.278-1.278-1.278c-0.705,0-1.277,0.572-1.277,1.278
				C60.729,187.895,61.301,188.466,62.006,188.466z"/>
			<path d="M76.406,188.466c0.705,0,1.277-0.572,1.277-1.277c0-0.706-0.572-1.278-1.277-1.278c-0.706,0-1.278,0.572-1.278,1.278
				C75.128,187.895,75.7,188.466,76.406,188.466z"/>
			<path d="M90.806,188.466c0.706,0,1.278-0.572,1.278-1.277c0-0.706-0.572-1.278-1.278-1.278c-0.705,0-1.277,0.572-1.277,1.278
				C89.528,187.895,90.101,188.466,90.806,188.466z"/>
			<path d="M105.206,188.466c0.706,0,1.278-0.572,1.278-1.277c0-0.706-0.572-1.278-1.278-1.278s-1.278,0.572-1.278,1.278
				C103.928,187.895,104.5,188.466,105.206,188.466z"/>
			<path d="M119.606,188.466c0.705,0,1.277-0.572,1.277-1.277c0-0.706-0.572-1.278-1.277-1.278c-0.706,0-1.278,0.572-1.278,1.278
				C118.328,187.895,118.9,188.466,119.606,188.466z"/>
			<path d="M134.006,188.466c0.706,0,1.278-0.572,1.278-1.277c0-0.706-0.572-1.278-1.278-1.278c-0.705,0-1.277,0.572-1.277,1.278
				C132.729,187.895,133.301,188.466,134.006,188.466z"/>
			<path d="M148.406,188.466c0.705,0,1.277-0.572,1.277-1.277c0-0.706-0.572-1.278-1.277-1.278c-0.706,0-1.278,0.572-1.278,1.278
				C147.128,187.895,147.7,188.466,148.406,188.466z"/>
			<path d="M162.806,188.466c0.706,0,1.278-0.572,1.278-1.277c0-0.706-0.572-1.278-1.278-1.278c-0.705,0-1.277,0.572-1.277,1.278
				C161.528,187.895,162.101,188.466,162.806,188.466z"/>
			<path d="M177.206,188.466c0.706,0,1.278-0.572,1.278-1.277c0-0.706-0.572-1.278-1.278-1.278s-1.278,0.572-1.278,1.278
				C175.928,187.895,176.5,188.466,177.206,188.466z"/>
			<path d="M191.607,188.466c0.705,0,1.277-0.572,1.277-1.277c0-0.706-0.572-1.278-1.277-1.278c-0.706,0-1.278,0.572-1.278,1.278
				C190.328,187.895,190.9,188.466,191.607,188.466z"/>
			<path d="M206.006,188.466c0.706,0,1.278-0.572,1.278-1.277c0-0.706-0.572-1.278-1.278-1.278c-0.705,0-1.277,0.572-1.277,1.278
				C204.729,187.895,205.301,188.466,206.006,188.466z"/>
			<path d="M220.406,188.466c0.705,0,1.277-0.572,1.277-1.277c0-0.706-0.572-1.278-1.277-1.278c-0.706,0-1.278,0.572-1.278,1.278
				C219.128,187.895,219.7,188.466,220.406,188.466z"/>
			<path d="M234.806,188.466c0.706,0,1.278-0.572,1.278-1.277c0-0.706-0.572-1.278-1.278-1.278c-0.705,0-1.277,0.572-1.277,1.278
				C233.528,187.895,234.101,188.466,234.806,188.466z"/>
			<path d="M249.206,188.466c0.706,0,1.278-0.572,1.278-1.277c0-0.706-0.572-1.278-1.278-1.278s-1.278,0.572-1.278,1.278
				C247.928,187.895,248.5,188.466,249.206,188.466z"/>
			<path d="M263.607,188.466c0.705,0,1.277-0.572,1.277-1.277c0-0.706-0.572-1.278-1.277-1.278c-0.706,0-1.278,0.572-1.278,1.278
				C262.328,187.895,262.9,188.466,263.607,188.466z"/>
			<path d="M278.006,188.466c0.706,0,1.278-0.572,1.278-1.277c0-0.706-0.572-1.278-1.278-1.278c-0.705,0-1.277,0.572-1.277,1.278
				C276.729,187.895,277.301,188.466,278.006,188.466z"/>
			<path d="M292.406,188.466c0.705,0,1.277-0.572,1.277-1.277c0-0.706-0.572-1.278-1.277-1.278c-0.706,0-1.278,0.572-1.278,1.278
				C291.128,187.895,291.7,188.466,292.406,188.466z"/>
			<path d="M-17.194,202.867c0.706,0,1.278-0.572,1.278-1.278s-0.572-1.278-1.278-1.278c-0.705,0-1.277,0.572-1.277,1.278
				S-17.899,202.867-17.194,202.867z"/>
			<circle cx="-2.794" cy="201.589" r="1.278"/>
			<path d="M11.606,202.867c0.705,0,1.277-0.572,1.277-1.278s-0.572-1.278-1.277-1.278c-0.706,0-1.278,0.572-1.278,1.278
				S10.9,202.867,11.606,202.867z"/>
			<path d="M26.006,202.867c0.706,0,1.278-0.572,1.278-1.278s-0.572-1.278-1.278-1.278c-0.705,0-1.277,0.572-1.277,1.278
				S25.301,202.867,26.006,202.867z"/>
			<path d="M40.406,202.867c0.705,0,1.277-0.572,1.277-1.278s-0.572-1.278-1.277-1.278c-0.706,0-1.278,0.572-1.278,1.278
				S39.7,202.867,40.406,202.867z"/>
			<path d="M54.806,202.867c0.706,0,1.278-0.572,1.278-1.278s-0.572-1.278-1.278-1.278c-0.705,0-1.277,0.572-1.277,1.278
				S54.101,202.867,54.806,202.867z"/>
			<circle cx="69.206" cy="201.589" r="1.278"/>
			<path d="M83.606,202.867c0.705,0,1.277-0.572,1.277-1.278s-0.572-1.278-1.277-1.278c-0.706,0-1.278,0.572-1.278,1.278
				S82.9,202.867,83.606,202.867z"/>
			<path d="M98.006,202.867c0.706,0,1.278-0.572,1.278-1.278s-0.572-1.278-1.278-1.278c-0.705,0-1.277,0.572-1.277,1.278
				S97.301,202.867,98.006,202.867z"/>
			<path d="M112.406,202.867c0.705,0,1.277-0.572,1.277-1.278s-0.572-1.278-1.277-1.278c-0.706,0-1.278,0.572-1.278,1.278
				S111.7,202.867,112.406,202.867z"/>
			<path d="M126.806,202.867c0.706,0,1.278-0.572,1.278-1.278s-0.572-1.278-1.278-1.278c-0.705,0-1.277,0.572-1.277,1.278
				S126.101,202.867,126.806,202.867z"/>
			<circle cx="141.206" cy="201.589" r="1.278"/>
			<path d="M155.607,202.867c0.705,0,1.277-0.572,1.277-1.278s-0.572-1.278-1.277-1.278c-0.706,0-1.278,0.572-1.278,1.278
				S154.9,202.867,155.607,202.867z"/>
			<path d="M170.006,202.867c0.706,0,1.278-0.572,1.278-1.278s-0.572-1.278-1.278-1.278c-0.705,0-1.277,0.572-1.277,1.278
				S169.301,202.867,170.006,202.867z"/>
			<path d="M184.406,202.867c0.705,0,1.277-0.572,1.277-1.278s-0.572-1.278-1.277-1.278c-0.706,0-1.278,0.572-1.278,1.278
				S183.7,202.867,184.406,202.867z"/>
			<path d="M198.806,202.867c0.706,0,1.278-0.572,1.278-1.278s-0.572-1.278-1.278-1.278c-0.705,0-1.277,0.572-1.277,1.278
				S198.101,202.867,198.806,202.867z"/>
			<circle cx="213.206" cy="201.589" r="1.278"/>
			<path d="M227.607,202.867c0.705,0,1.277-0.572,1.277-1.278s-0.572-1.278-1.277-1.278c-0.706,0-1.278,0.572-1.278,1.278
				S226.9,202.867,227.607,202.867z"/>
			<path d="M242.006,202.867c0.706,0,1.278-0.572,1.278-1.278s-0.572-1.278-1.278-1.278c-0.705,0-1.277,0.572-1.277,1.278
				S241.301,202.867,242.006,202.867z"/>
			<path d="M256.406,202.867c0.705,0,1.277-0.572,1.277-1.278s-0.572-1.278-1.277-1.278c-0.706,0-1.278,0.572-1.278,1.278
				S255.7,202.867,256.406,202.867z"/>
			<path d="M270.806,202.867c0.706,0,1.278-0.572,1.278-1.278s-0.572-1.278-1.278-1.278c-0.705,0-1.277,0.572-1.277,1.278
				S270.101,202.867,270.806,202.867z"/>
			<circle cx="285.206" cy="201.589" r="1.278"/>
			<path d="M-9.994,217.267c0.706,0,1.278-0.572,1.278-1.278s-0.572-1.278-1.278-1.278c-0.705,0-1.277,0.572-1.277,1.278
				S-10.699,217.267-9.994,217.267z"/>
			<path d="M4.406,217.267c0.705,0,1.277-0.572,1.277-1.278s-0.572-1.278-1.277-1.278c-0.706,0-1.278,0.572-1.278,1.278
				S3.7,217.267,4.406,217.267z"/>
			<path d="M18.806,217.267c0.706,0,1.278-0.572,1.278-1.278s-0.572-1.278-1.278-1.278c-0.705,0-1.277,0.572-1.277,1.278
				S18.101,217.267,18.806,217.267z"/>
			<circle cx="33.206" cy="215.989" r="1.278"/>
			<path d="M47.606,217.267c0.705,0,1.277-0.572,1.277-1.278s-0.572-1.278-1.277-1.278c-0.706,0-1.278,0.572-1.278,1.278
				S46.9,217.267,47.606,217.267z"/>
			<path d="M62.006,217.267c0.706,0,1.278-0.572,1.278-1.278s-0.572-1.278-1.278-1.278c-0.705,0-1.277,0.572-1.277,1.278
				S61.301,217.267,62.006,217.267z"/>
			<path d="M76.406,217.267c0.705,0,1.277-0.572,1.277-1.278s-0.572-1.278-1.277-1.278c-0.706,0-1.278,0.572-1.278,1.278
				S75.7,217.267,76.406,217.267z"/>
			<path d="M90.806,217.267c0.706,0,1.278-0.572,1.278-1.278s-0.572-1.278-1.278-1.278c-0.705,0-1.277,0.572-1.277,1.278
				S90.101,217.267,90.806,217.267z"/>
			<circle cx="105.206" cy="215.989" r="1.278"/>
			<path d="M119.606,217.267c0.705,0,1.277-0.572,1.277-1.278s-0.572-1.278-1.277-1.278c-0.706,0-1.278,0.572-1.278,1.278
				S118.9,217.267,119.606,217.267z"/>
			<path d="M134.006,217.267c0.706,0,1.278-0.572,1.278-1.278s-0.572-1.278-1.278-1.278c-0.705,0-1.277,0.572-1.277,1.278
				S133.301,217.267,134.006,217.267z"/>
			<path d="M148.406,217.267c0.705,0,1.277-0.572,1.277-1.278s-0.572-1.278-1.277-1.278c-0.706,0-1.278,0.572-1.278,1.278
				S147.7,217.267,148.406,217.267z"/>
			<path d="M162.806,217.267c0.706,0,1.278-0.572,1.278-1.278s-0.572-1.278-1.278-1.278c-0.705,0-1.277,0.572-1.277,1.278
				S162.101,217.267,162.806,217.267z"/>
			<circle cx="177.206" cy="215.989" r="1.278"/>
			<path d="M191.607,217.267c0.705,0,1.277-0.572,1.277-1.278s-0.572-1.278-1.277-1.278c-0.706,0-1.278,0.572-1.278,1.278
				S190.9,217.267,191.607,217.267z"/>
			<path d="M206.006,217.267c0.706,0,1.278-0.572,1.278-1.278s-0.572-1.278-1.278-1.278c-0.705,0-1.277,0.572-1.277,1.278
				S205.301,217.267,206.006,217.267z"/>
			<path d="M220.406,217.267c0.705,0,1.277-0.572,1.277-1.278s-0.572-1.278-1.277-1.278c-0.706,0-1.278,0.572-1.278,1.278
				S219.7,217.267,220.406,217.267z"/>
			<path d="M234.806,217.267c0.706,0,1.278-0.572,1.278-1.278s-0.572-1.278-1.278-1.278c-0.705,0-1.277,0.572-1.277,1.278
				S234.101,217.267,234.806,217.267z"/>
			<circle cx="249.206" cy="215.989" r="1.278"/>
			<path d="M263.607,217.267c0.705,0,1.277-0.572,1.277-1.278s-0.572-1.278-1.277-1.278c-0.706,0-1.278,0.572-1.278,1.278
				S262.9,217.267,263.607,217.267z"/>
			<path d="M278.006,217.267c0.706,0,1.278-0.572,1.278-1.278s-0.572-1.278-1.278-1.278c-0.705,0-1.277,0.572-1.277,1.278
				S277.301,217.267,278.006,217.267z"/>
			<path d="M292.406,217.267c0.705,0,1.277-0.572,1.277-1.278s-0.572-1.278-1.277-1.278c-0.706,0-1.278,0.572-1.278,1.278
				S291.7,217.267,292.406,217.267z"/>
			<path d="M-17.194,231.667c0.706,0,1.278-0.572,1.278-1.278c0-0.706-0.572-1.278-1.278-1.278c-0.705,0-1.277,0.572-1.277,1.278
				C-18.472,231.094-17.899,231.667-17.194,231.667z"/>
			<path d="M-2.794,231.667c0.706,0,1.278-0.572,1.278-1.278c0-0.706-0.572-1.278-1.278-1.278s-1.278,0.572-1.278,1.278
				C-4.072,231.094-3.5,231.667-2.794,231.667z"/>
			<path d="M11.606,231.667c0.705,0,1.277-0.572,1.277-1.278c0-0.706-0.572-1.278-1.277-1.278c-0.706,0-1.278,0.572-1.278,1.278
				C10.328,231.094,10.9,231.667,11.606,231.667z"/>
			<path d="M26.006,231.667c0.706,0,1.278-0.572,1.278-1.278c0-0.706-0.572-1.278-1.278-1.278c-0.705,0-1.277,0.572-1.277,1.278
				C24.729,231.094,25.301,231.667,26.006,231.667z"/>
			<path d="M40.406,231.667c0.705,0,1.277-0.572,1.277-1.278c0-0.706-0.572-1.278-1.277-1.278c-0.706,0-1.278,0.572-1.278,1.278
				C39.128,231.094,39.7,231.667,40.406,231.667z"/>
			<path d="M54.806,231.667c0.706,0,1.278-0.572,1.278-1.278c0-0.706-0.572-1.278-1.278-1.278c-0.705,0-1.277,0.572-1.277,1.278
				C53.528,231.094,54.101,231.667,54.806,231.667z"/>
			<path d="M69.206,231.667c0.706,0,1.278-0.572,1.278-1.278c0-0.706-0.572-1.278-1.278-1.278s-1.278,0.572-1.278,1.278
				C67.928,231.094,68.5,231.667,69.206,231.667z"/>
			<path d="M83.606,231.667c0.705,0,1.277-0.572,1.277-1.278c0-0.706-0.572-1.278-1.277-1.278c-0.706,0-1.278,0.572-1.278,1.278
				C82.328,231.094,82.9,231.667,83.606,231.667z"/>
			<path d="M98.006,231.667c0.706,0,1.278-0.572,1.278-1.278c0-0.706-0.572-1.278-1.278-1.278c-0.705,0-1.277,0.572-1.277,1.278
				C96.729,231.094,97.301,231.667,98.006,231.667z"/>
			<path d="M112.406,231.667c0.705,0,1.277-0.572,1.277-1.278c0-0.706-0.572-1.278-1.277-1.278c-0.706,0-1.278,0.572-1.278,1.278
				C111.128,231.094,111.7,231.667,112.406,231.667z"/>
			<path d="M126.806,231.667c0.706,0,1.278-0.572,1.278-1.278c0-0.706-0.572-1.278-1.278-1.278c-0.705,0-1.277,0.572-1.277,1.278
				C125.528,231.094,126.101,231.667,126.806,231.667z"/>
			<path d="M141.206,231.667c0.706,0,1.278-0.572,1.278-1.278c0-0.706-0.572-1.278-1.278-1.278s-1.278,0.572-1.278,1.278
				C139.928,231.094,140.5,231.667,141.206,231.667z"/>
			<path d="M155.607,231.667c0.705,0,1.277-0.572,1.277-1.278c0-0.706-0.572-1.278-1.277-1.278c-0.706,0-1.278,0.572-1.278,1.278
				C154.328,231.094,154.9,231.667,155.607,231.667z"/>
			<path d="M170.006,231.667c0.706,0,1.278-0.572,1.278-1.278c0-0.706-0.572-1.278-1.278-1.278c-0.705,0-1.277,0.572-1.277,1.278
				C168.729,231.094,169.301,231.667,170.006,231.667z"/>
			<path d="M184.406,231.667c0.705,0,1.277-0.572,1.277-1.278c0-0.706-0.572-1.278-1.277-1.278c-0.706,0-1.278,0.572-1.278,1.278
				C183.128,231.094,183.7,231.667,184.406,231.667z"/>
			<path d="M198.806,231.667c0.706,0,1.278-0.572,1.278-1.278c0-0.706-0.572-1.278-1.278-1.278c-0.705,0-1.277,0.572-1.277,1.278
				C197.528,231.094,198.101,231.667,198.806,231.667z"/>
			<path d="M213.206,231.667c0.706,0,1.278-0.572,1.278-1.278c0-0.706-0.572-1.278-1.278-1.278s-1.278,0.572-1.278,1.278
				C211.928,231.094,212.5,231.667,213.206,231.667z"/>
			<path d="M227.607,231.667c0.705,0,1.277-0.572,1.277-1.278c0-0.706-0.572-1.278-1.277-1.278c-0.706,0-1.278,0.572-1.278,1.278
				C226.328,231.094,226.9,231.667,227.607,231.667z"/>
			<path d="M242.006,231.667c0.706,0,1.278-0.572,1.278-1.278c0-0.706-0.572-1.278-1.278-1.278c-0.705,0-1.277,0.572-1.277,1.278
				C240.729,231.094,241.301,231.667,242.006,231.667z"/>
			<path d="M256.406,231.667c0.705,0,1.277-0.572,1.277-1.278c0-0.706-0.572-1.278-1.277-1.278c-0.706,0-1.278,0.572-1.278,1.278
				C255.128,231.094,255.7,231.667,256.406,231.667z"/>
			<path d="M270.806,231.667c0.706,0,1.278-0.572,1.278-1.278c0-0.706-0.572-1.278-1.278-1.278c-0.705,0-1.277,0.572-1.277,1.278
				C269.528,231.094,270.101,231.667,270.806,231.667z"/>
			<path d="M285.206,231.667c0.706,0,1.278-0.572,1.278-1.278c0-0.706-0.572-1.278-1.278-1.278c-0.706,0-1.278,0.572-1.278,1.278
				C283.928,231.094,284.5,231.667,285.206,231.667z"/>
			<path d="M-9.994,246.066c0.706,0,1.278-0.572,1.278-1.278c0-0.706-0.572-1.277-1.278-1.277c-0.705,0-1.277,0.572-1.277,1.277
				C-11.271,245.495-10.699,246.066-9.994,246.066z"/>
			<path d="M4.406,246.066c0.705,0,1.277-0.572,1.277-1.278c0-0.706-0.572-1.277-1.277-1.277c-0.706,0-1.278,0.572-1.278,1.277
				C3.128,245.495,3.7,246.066,4.406,246.066z"/>
			<path d="M18.806,246.066c0.706,0,1.278-0.572,1.278-1.278c0-0.706-0.572-1.277-1.278-1.277c-0.705,0-1.277,0.572-1.277,1.277
				C17.528,245.495,18.101,246.066,18.806,246.066z"/>
			<path d="M33.206,246.066c0.706,0,1.278-0.572,1.278-1.278c0-0.706-0.572-1.277-1.278-1.277s-1.278,0.572-1.278,1.277
				C31.928,245.495,32.5,246.066,33.206,246.066z"/>
			<path d="M47.606,246.066c0.705,0,1.277-0.572,1.277-1.278c0-0.706-0.572-1.277-1.277-1.277c-0.706,0-1.278,0.572-1.278,1.277
				C46.328,245.495,46.9,246.066,47.606,246.066z"/>
			<path d="M62.006,246.066c0.706,0,1.278-0.572,1.278-1.278c0-0.706-0.572-1.277-1.278-1.277c-0.705,0-1.277,0.572-1.277,1.277
				C60.729,245.495,61.301,246.066,62.006,246.066z"/>
			<path d="M76.406,246.066c0.705,0,1.277-0.572,1.277-1.278c0-0.706-0.572-1.277-1.277-1.277c-0.706,0-1.278,0.572-1.278,1.277
				C75.128,245.495,75.7,246.066,76.406,246.066z"/>
			<path d="M90.806,246.066c0.706,0,1.278-0.572,1.278-1.278c0-0.706-0.572-1.277-1.278-1.277c-0.705,0-1.277,0.572-1.277,1.277
				C89.528,245.495,90.101,246.066,90.806,246.066z"/>
			<path d="M105.206,246.066c0.706,0,1.278-0.572,1.278-1.278c0-0.706-0.572-1.277-1.278-1.277s-1.278,0.572-1.278,1.277
				C103.928,245.495,104.5,246.066,105.206,246.066z"/>
			<path d="M119.606,246.066c0.705,0,1.277-0.572,1.277-1.278c0-0.706-0.572-1.277-1.277-1.277c-0.706,0-1.278,0.572-1.278,1.277
				C118.328,245.495,118.9,246.066,119.606,246.066z"/>
			<path d="M134.006,246.066c0.706,0,1.278-0.572,1.278-1.278c0-0.706-0.572-1.277-1.278-1.277c-0.705,0-1.277,0.572-1.277,1.277
				C132.729,245.495,133.301,246.066,134.006,246.066z"/>
			<path d="M148.406,246.066c0.705,0,1.277-0.572,1.277-1.278c0-0.706-0.572-1.277-1.277-1.277c-0.706,0-1.278,0.572-1.278,1.277
				C147.128,245.495,147.7,246.066,148.406,246.066z"/>
			<path d="M162.806,246.066c0.706,0,1.278-0.572,1.278-1.278c0-0.706-0.572-1.277-1.278-1.277c-0.705,0-1.277,0.572-1.277,1.277
				C161.528,245.495,162.101,246.066,162.806,246.066z"/>
			<path d="M177.206,246.066c0.706,0,1.278-0.572,1.278-1.278c0-0.706-0.572-1.277-1.278-1.277s-1.278,0.572-1.278,1.277
				C175.928,245.495,176.5,246.066,177.206,246.066z"/>
			<path d="M191.607,246.066c0.705,0,1.277-0.572,1.277-1.278c0-0.706-0.572-1.277-1.277-1.277c-0.706,0-1.278,0.572-1.278,1.277
				C190.328,245.495,190.9,246.066,191.607,246.066z"/>
			<path d="M206.006,246.066c0.706,0,1.278-0.572,1.278-1.278c0-0.706-0.572-1.277-1.278-1.277c-0.705,0-1.277,0.572-1.277,1.277
				C204.729,245.495,205.301,246.066,206.006,246.066z"/>
			<path d="M220.406,246.066c0.705,0,1.277-0.572,1.277-1.278c0-0.706-0.572-1.277-1.277-1.277c-0.706,0-1.278,0.572-1.278,1.277
				C219.128,245.495,219.7,246.066,220.406,246.066z"/>
			<path d="M234.806,246.066c0.706,0,1.278-0.572,1.278-1.278c0-0.706-0.572-1.277-1.278-1.277c-0.705,0-1.277,0.572-1.277,1.277
				C233.528,245.495,234.101,246.066,234.806,246.066z"/>
			<path d="M249.206,246.066c0.706,0,1.278-0.572,1.278-1.278c0-0.706-0.572-1.277-1.278-1.277s-1.278,0.572-1.278,1.277
				C247.928,245.495,248.5,246.066,249.206,246.066z"/>
			<path d="M263.607,246.066c0.705,0,1.277-0.572,1.277-1.278c0-0.706-0.572-1.277-1.277-1.277c-0.706,0-1.278,0.572-1.278,1.277
				C262.328,245.495,262.9,246.066,263.607,246.066z"/>
			<path d="M278.006,246.066c0.706,0,1.278-0.572,1.278-1.278c0-0.706-0.572-1.277-1.278-1.277c-0.705,0-1.277,0.572-1.277,1.277
				C276.729,245.495,277.301,246.066,278.006,246.066z"/>
			<path d="M292.406,246.066c0.705,0,1.277-0.572,1.277-1.278c0-0.706-0.572-1.277-1.277-1.277c-0.706,0-1.278,0.572-1.278,1.277
				C291.128,245.495,291.7,246.066,292.406,246.066z"/>
			<path d="M-17.194,260.466c0.706,0,1.278-0.572,1.278-1.277c0-0.706-0.572-1.278-1.278-1.278c-0.705,0-1.277,0.572-1.277,1.278
				C-18.472,259.895-17.899,260.466-17.194,260.466z"/>
			<path d="M-2.794,260.466c0.706,0,1.278-0.572,1.278-1.277c0-0.706-0.572-1.278-1.278-1.278s-1.278,0.572-1.278,1.278
				C-4.072,259.895-3.5,260.466-2.794,260.466z"/>
			<path d="M11.606,260.466c0.705,0,1.277-0.572,1.277-1.277c0-0.706-0.572-1.278-1.277-1.278c-0.706,0-1.278,0.572-1.278,1.278
				C10.328,259.895,10.9,260.466,11.606,260.466z"/>
			<path d="M26.006,260.466c0.706,0,1.278-0.572,1.278-1.277c0-0.706-0.572-1.278-1.278-1.278c-0.705,0-1.277,0.572-1.277,1.278
				C24.729,259.895,25.301,260.466,26.006,260.466z"/>
			<path d="M40.406,260.466c0.705,0,1.277-0.572,1.277-1.277c0-0.706-0.572-1.278-1.277-1.278c-0.706,0-1.278,0.572-1.278,1.278
				C39.128,259.895,39.7,260.466,40.406,260.466z"/>
			<path d="M54.806,260.466c0.706,0,1.278-0.572,1.278-1.277c0-0.706-0.572-1.278-1.278-1.278c-0.705,0-1.277,0.572-1.277,1.278
				C53.528,259.895,54.101,260.466,54.806,260.466z"/>
			<path d="M69.206,260.466c0.706,0,1.278-0.572,1.278-1.277c0-0.706-0.572-1.278-1.278-1.278s-1.278,0.572-1.278,1.278
				C67.928,259.895,68.5,260.466,69.206,260.466z"/>
			<path d="M83.606,260.466c0.705,0,1.277-0.572,1.277-1.277c0-0.706-0.572-1.278-1.277-1.278c-0.706,0-1.278,0.572-1.278,1.278
				C82.328,259.895,82.9,260.466,83.606,260.466z"/>
			<path d="M98.006,260.466c0.706,0,1.278-0.572,1.278-1.277c0-0.706-0.572-1.278-1.278-1.278c-0.705,0-1.277,0.572-1.277,1.278
				C96.729,259.895,97.301,260.466,98.006,260.466z"/>
			<path d="M112.406,260.466c0.705,0,1.277-0.572,1.277-1.277c0-0.706-0.572-1.278-1.277-1.278c-0.706,0-1.278,0.572-1.278,1.278
				C111.128,259.895,111.7,260.466,112.406,260.466z"/>
			<path d="M126.806,260.466c0.706,0,1.278-0.572,1.278-1.277c0-0.706-0.572-1.278-1.278-1.278c-0.705,0-1.277,0.572-1.277,1.278
				C125.528,259.895,126.101,260.466,126.806,260.466z"/>
			<path d="M141.206,260.466c0.706,0,1.278-0.572,1.278-1.277c0-0.706-0.572-1.278-1.278-1.278s-1.278,0.572-1.278,1.278
				C139.928,259.895,140.5,260.466,141.206,260.466z"/>
			<path d="M155.607,260.466c0.705,0,1.277-0.572,1.277-1.277c0-0.706-0.572-1.278-1.277-1.278c-0.706,0-1.278,0.572-1.278,1.278
				C154.328,259.895,154.9,260.466,155.607,260.466z"/>
			<path d="M170.006,260.466c0.706,0,1.278-0.572,1.278-1.277c0-0.706-0.572-1.278-1.278-1.278c-0.705,0-1.277,0.572-1.277,1.278
				C168.729,259.895,169.301,260.466,170.006,260.466z"/>
			<path d="M184.406,260.466c0.705,0,1.277-0.572,1.277-1.277c0-0.706-0.572-1.278-1.277-1.278c-0.706,0-1.278,0.572-1.278,1.278
				C183.128,259.895,183.7,260.466,184.406,260.466z"/>
			<path d="M198.806,260.466c0.706,0,1.278-0.572,1.278-1.277c0-0.706-0.572-1.278-1.278-1.278c-0.705,0-1.277,0.572-1.277,1.278
				C197.528,259.895,198.101,260.466,198.806,260.466z"/>
			<path d="M213.206,260.466c0.706,0,1.278-0.572,1.278-1.277c0-0.706-0.572-1.278-1.278-1.278s-1.278,0.572-1.278,1.278
				C211.928,259.895,212.5,260.466,213.206,260.466z"/>
			<path d="M227.607,260.466c0.705,0,1.277-0.572,1.277-1.277c0-0.706-0.572-1.278-1.277-1.278c-0.706,0-1.278,0.572-1.278,1.278
				C226.328,259.895,226.9,260.466,227.607,260.466z"/>
			<path d="M242.006,260.466c0.706,0,1.278-0.572,1.278-1.277c0-0.706-0.572-1.278-1.278-1.278c-0.705,0-1.277,0.572-1.277,1.278
				C240.729,259.895,241.301,260.466,242.006,260.466z"/>
			<path d="M256.406,260.466c0.705,0,1.277-0.572,1.277-1.277c0-0.706-0.572-1.278-1.277-1.278c-0.706,0-1.278,0.572-1.278,1.278
				C255.128,259.895,255.7,260.466,256.406,260.466z"/>
			<path d="M270.806,260.466c0.706,0,1.278-0.572,1.278-1.277c0-0.706-0.572-1.278-1.278-1.278c-0.705,0-1.277,0.572-1.277,1.278
				C269.528,259.895,270.101,260.466,270.806,260.466z"/>
			<path d="M285.206,260.466c0.706,0,1.278-0.572,1.278-1.277c0-0.706-0.572-1.278-1.278-1.278c-0.706,0-1.278,0.572-1.278,1.278
				C283.928,259.895,284.5,260.466,285.206,260.466z"/>
			<path d="M-9.994,274.867c0.706,0,1.278-0.572,1.278-1.278s-0.572-1.278-1.278-1.278c-0.705,0-1.277,0.572-1.277,1.278
				S-10.699,274.867-9.994,274.867z"/>
			<path d="M4.406,274.867c0.705,0,1.277-0.572,1.277-1.278s-0.572-1.278-1.277-1.278c-0.706,0-1.278,0.572-1.278,1.278
				S3.7,274.867,4.406,274.867z"/>
			<path d="M18.806,274.867c0.706,0,1.278-0.572,1.278-1.278s-0.572-1.278-1.278-1.278c-0.705,0-1.277,0.572-1.277,1.278
				S18.101,274.867,18.806,274.867z"/>
			<circle cx="33.206" cy="273.589" r="1.278"/>
			<path d="M47.606,274.867c0.705,0,1.277-0.572,1.277-1.278s-0.572-1.278-1.277-1.278c-0.706,0-1.278,0.572-1.278,1.278
				S46.9,274.867,47.606,274.867z"/>
			<path d="M62.006,274.867c0.706,0,1.278-0.572,1.278-1.278s-0.572-1.278-1.278-1.278c-0.705,0-1.277,0.572-1.277,1.278
				S61.301,274.867,62.006,274.867z"/>
			<path d="M76.406,274.867c0.705,0,1.277-0.572,1.277-1.278s-0.572-1.278-1.277-1.278c-0.706,0-1.278,0.572-1.278,1.278
				S75.7,274.867,76.406,274.867z"/>
			<path d="M90.806,274.867c0.706,0,1.278-0.572,1.278-1.278s-0.572-1.278-1.278-1.278c-0.705,0-1.277,0.572-1.277,1.278
				S90.101,274.867,90.806,274.867z"/>
			<circle cx="105.206" cy="273.589" r="1.278"/>
			<path d="M119.606,274.867c0.705,0,1.277-0.572,1.277-1.278s-0.572-1.278-1.277-1.278c-0.706,0-1.278,0.572-1.278,1.278
				S118.9,274.867,119.606,274.867z"/>
			<path d="M134.006,274.867c0.706,0,1.278-0.572,1.278-1.278s-0.572-1.278-1.278-1.278c-0.705,0-1.277,0.572-1.277,1.278
				S133.301,274.867,134.006,274.867z"/>
			<path d="M148.406,274.867c0.705,0,1.277-0.572,1.277-1.278s-0.572-1.278-1.277-1.278c-0.706,0-1.278,0.572-1.278,1.278
				S147.7,274.867,148.406,274.867z"/>
			<path d="M162.806,274.867c0.706,0,1.278-0.572,1.278-1.278s-0.572-1.278-1.278-1.278c-0.705,0-1.277,0.572-1.277,1.278
				S162.101,274.867,162.806,274.867z"/>
			<circle cx="177.206" cy="273.589" r="1.278"/>
			<path d="M191.607,274.867c0.705,0,1.277-0.572,1.277-1.278s-0.572-1.278-1.277-1.278c-0.706,0-1.278,0.572-1.278,1.278
				S190.9,274.867,191.607,274.867z"/>
			<path d="M206.006,274.867c0.706,0,1.278-0.572,1.278-1.278s-0.572-1.278-1.278-1.278c-0.705,0-1.277,0.572-1.277,1.278
				S205.301,274.867,206.006,274.867z"/>
			<path d="M220.406,274.867c0.705,0,1.277-0.572,1.277-1.278s-0.572-1.278-1.277-1.278c-0.706,0-1.278,0.572-1.278,1.278
				S219.7,274.867,220.406,274.867z"/>
			<path d="M234.806,274.867c0.706,0,1.278-0.572,1.278-1.278s-0.572-1.278-1.278-1.278c-0.705,0-1.277,0.572-1.277,1.278
				S234.101,274.867,234.806,274.867z"/>
			<circle cx="249.206" cy="273.589" r="1.278"/>
			<path d="M263.607,274.867c0.705,0,1.277-0.572,1.277-1.278s-0.572-1.278-1.277-1.278c-0.706,0-1.278,0.572-1.278,1.278
				S262.9,274.867,263.607,274.867z"/>
			<path d="M278.006,274.867c0.706,0,1.278-0.572,1.278-1.278s-0.572-1.278-1.278-1.278c-0.705,0-1.277,0.572-1.277,1.278
				S277.301,274.867,278.006,274.867z"/>
			<path d="M292.406,274.867c0.705,0,1.277-0.572,1.277-1.278s-0.572-1.278-1.277-1.278c-0.706,0-1.278,0.572-1.278,1.278
				S291.7,274.867,292.406,274.867z"/>
			<path d="M-17.194,289.267c0.706,0,1.278-0.572,1.278-1.278s-0.572-1.278-1.278-1.278c-0.705,0-1.277,0.572-1.277,1.278
				S-17.899,289.267-17.194,289.267z"/>
			<circle cx="-2.794" cy="287.989" r="1.278"/>
			<path d="M11.606,289.267c0.705,0,1.277-0.572,1.277-1.278s-0.572-1.278-1.277-1.278c-0.706,0-1.278,0.572-1.278,1.278
				S10.9,289.267,11.606,289.267z"/>
			<path d="M26.006,289.267c0.706,0,1.278-0.572,1.278-1.278s-0.572-1.278-1.278-1.278c-0.705,0-1.277,0.572-1.277,1.278
				S25.301,289.267,26.006,289.267z"/>
			<path d="M40.406,289.267c0.705,0,1.277-0.572,1.277-1.278s-0.572-1.278-1.277-1.278c-0.706,0-1.278,0.572-1.278,1.278
				S39.7,289.267,40.406,289.267z"/>
			<path d="M54.806,289.267c0.706,0,1.278-0.572,1.278-1.278s-0.572-1.278-1.278-1.278c-0.705,0-1.277,0.572-1.277,1.278
				S54.101,289.267,54.806,289.267z"/>
			<circle cx="69.206" cy="287.989" r="1.278"/>
			<path d="M83.606,289.267c0.705,0,1.277-0.572,1.277-1.278s-0.572-1.278-1.277-1.278c-0.706,0-1.278,0.572-1.278,1.278
				S82.9,289.267,83.606,289.267z"/>
			<path d="M98.006,289.267c0.706,0,1.278-0.572,1.278-1.278s-0.572-1.278-1.278-1.278c-0.705,0-1.277,0.572-1.277,1.278
				S97.301,289.267,98.006,289.267z"/>
			<path d="M112.406,289.267c0.705,0,1.277-0.572,1.277-1.278s-0.572-1.278-1.277-1.278c-0.706,0-1.278,0.572-1.278,1.278
				S111.7,289.267,112.406,289.267z"/>
			<path d="M126.806,289.267c0.706,0,1.278-0.572,1.278-1.278s-0.572-1.278-1.278-1.278c-0.705,0-1.277,0.572-1.277,1.278
				S126.101,289.267,126.806,289.267z"/>
			<circle cx="141.206" cy="287.989" r="1.278"/>
			<path d="M155.607,289.267c0.705,0,1.277-0.572,1.277-1.278s-0.572-1.278-1.277-1.278c-0.706,0-1.278,0.572-1.278,1.278
				S154.9,289.267,155.607,289.267z"/>
			<path d="M170.006,289.267c0.706,0,1.278-0.572,1.278-1.278s-0.572-1.278-1.278-1.278c-0.705,0-1.277,0.572-1.277,1.278
				S169.301,289.267,170.006,289.267z"/>
			<path d="M184.406,289.267c0.705,0,1.277-0.572,1.277-1.278s-0.572-1.278-1.277-1.278c-0.706,0-1.278,0.572-1.278,1.278
				S183.7,289.267,184.406,289.267z"/>
			<path d="M198.806,289.267c0.706,0,1.278-0.572,1.278-1.278s-0.572-1.278-1.278-1.278c-0.705,0-1.277,0.572-1.277,1.278
				S198.101,289.267,198.806,289.267z"/>
			<circle cx="213.206" cy="287.989" r="1.278"/>
			<path d="M227.607,289.267c0.705,0,1.277-0.572,1.277-1.278s-0.572-1.278-1.277-1.278c-0.706,0-1.278,0.572-1.278,1.278
				S226.9,289.267,227.607,289.267z"/>
			<path d="M242.006,289.267c0.706,0,1.278-0.572,1.278-1.278s-0.572-1.278-1.278-1.278c-0.705,0-1.277,0.572-1.277,1.278
				S241.301,289.267,242.006,289.267z"/>
			<path d="M256.406,289.267c0.705,0,1.277-0.572,1.277-1.278s-0.572-1.278-1.277-1.278c-0.706,0-1.278,0.572-1.278,1.278
				S255.7,289.267,256.406,289.267z"/>
			<path d="M270.806,289.267c0.706,0,1.278-0.572,1.278-1.278s-0.572-1.278-1.278-1.278c-0.705,0-1.277,0.572-1.277,1.278
				S270.101,289.267,270.806,289.267z"/>
			<circle cx="285.206" cy="287.989" r="1.278"/>
		</g>
	</g>
</g>
</svg>
